<svg xmlns="http://www.w3.org/2000/svg" viewBox="0 0 170 16"><rect fill="none" width="170" height="16"/><path fill="#F8971D" d="M68.488 4.869c-0.088 0-0.176-0.023-0.253-0.08c-0.22-0.149-0.286-0.457-0.154-0.687 C68.191 3.9 70.7 0 76.6 0c0.033 0 0.1 0 0.1 0c5.851 0 8.2 3.9 8.3 4.036c0.134 0.2 0.1 0.536-0.164 0.7 c-0.231 0.137-0.519 0.069-0.662-0.172C84.002 4.4 81.9 1 76.6 0.995c-5.389 0.035-7.647 3.622-7.669 3.7 C68.808 4.8 68.7 4.9 68.5 4.9"/><path fill="#F8971D" d="M71.408 5.76c-0.087 0-0.176-0.023-0.253-0.08c-0.221-0.148-0.286-0.458-0.143-0.685 c0.066-0.115 1.686-2.674 5.542-2.698c0.022 0 0 0 0.1 0c3.824 0 5.3 2.5 5.4 2.652c0.132 0.2 0.1 0.537-0.166 0.7 c-0.231 0.137-0.518 0.068-0.66-0.171c-0.055-0.092-1.333-2.172-4.583-2.172c-0.01 0-0.032 0-0.043 0 c-3.328 0.023-4.716 2.216-4.738 2.239C71.718 5.7 71.6 5.8 71.4 5.8"/><path fill="#F8971D" d="M74.207 6.663c-0.087 0-0.176-0.023-0.253-0.08c-0.22-0.149-0.286-0.458-0.143-0.686 c0.033-0.057 0.838-1.327 2.71-1.337c0.011 0 0 0 0 0c1.862 0 2.6 1.3 2.7 1.325c0.132 0.2 0.1 0.538-0.165 0.7 c-0.23 0.149-0.519 0.068-0.661-0.171c-0.023-0.023-0.529-0.846-1.83-0.846c-0.011 0-0.011 0-0.022 0 c-1.333 0.012-1.895 0.869-1.906 0.881C74.526 6.6 74.4 6.7 74.2 6.7"/><path fill="#F8971D" d="M80.861 7.554c-0.44-0.297-0.858-0.412-1.244-0.412c-1.466 0-2.59 1.644-3.141 1.7 c-0.286 0.012-0.738-0.413-1.312-0.834c-0.849-0.628-1.939-1.246-3.062-0.468C68.907 9.7 74.5 16 76.5 16 C78.495 16 83.8 9.6 80.9 7.554z"/><path fill="#F8971D" d="M85.491 4.869c-0.088 0-0.176-0.023-0.253-0.08c-0.221-0.149-0.286-0.457-0.154-0.687 c0.11-0.16 2.579-4.068 8.484-4.103c0.032 0 0.1 0 0.1 0c5.85 0 8.2 3.9 8.3 4.036c0.134 0.2 0.1 0.536-0.165 0.7 c-0.229 0.137-0.518 0.069-0.66-0.172C101.005 4.4 98.9 1 93.6 0.995c-5.39 0.035-7.647 3.622-7.67 3.7 C85.811 4.8 85.7 4.9 85.5 4.9"/><path fill="#F8971D" d="M88.41 5.76c-0.086 0-0.175-0.023-0.252-0.08c-0.22-0.148-0.286-0.458-0.143-0.685 c0.063-0.115 1.686-2.674 5.541-2.698c0.021 0 0 0 0.1 0c3.824 0 5.3 2.5 5.4 2.652c0.134 0.2 0.1 0.537-0.165 0.7 c-0.231 0.137-0.518 0.068-0.661-0.171c-0.055-0.092-1.332-2.172-4.584-2.172c-0.011 0-0.033 0-0.043 0 c-3.327 0.023-4.716 2.216-4.738 2.239C88.721 5.7 88.6 5.8 88.4 5.8"/><path fill="#FABA6A" d="M91.209 6.663c-0.087 0-0.175-0.023-0.252-0.08c-0.221-0.149-0.286-0.458-0.144-0.686 c0.034-0.057 0.838-1.327 2.71-1.337c0.013 0 0 0 0 0c1.862 0 2.6 1.3 2.7 1.325c0.13 0.2 0.1 0.538-0.168 0.7 c-0.229 0.149-0.518 0.068-0.66-0.171c-0.022-0.023-0.529-0.846-1.829-0.846c-0.01 0-0.01 0-0.022 0 c-1.332 0.012-1.896 0.869-1.904 0.881C91.53 6.6 91.4 6.7 91.2 6.7"/><path fill="#F8971D" d="M97.866 7.554c-0.442-0.297-0.862-0.412-1.248-0.412c-1.466 0-2.587 1.644-3.139 1.7 c-0.285 0.012-0.737-0.413-1.312-0.834c-0.849-0.628-1.938-1.246-3.063-0.468C85.91 9.7 91.5 16 93.5 16 C95.495 16 100.8 9.6 97.9 7.554z"/><path fill="#F8971D" d="M102.495 4.869c-0.088 0-0.177-0.023-0.254-0.08c-0.22-0.149-0.286-0.457-0.154-0.687 c0.111-0.16 2.58-4.068 8.484-4.103c0.032 0 0.1 0 0.1 0c5.852 0 8.2 3.9 8.3 4.036c0.133 0.2 0.1 0.536-0.166 0.7 c-0.229 0.137-0.518 0.069-0.66-0.172c-0.089-0.148-2.183-3.588-7.525-3.553c-5.389 0.035-7.647 3.622-7.67 3.7 C102.813 4.8 102.7 4.9 102.5 4.9"/><path fill="#FABA6A" d="M105.416 5.76c-0.089 0-0.178-0.023-0.255-0.08c-0.22-0.148-0.287-0.458-0.145-0.685 c0.066-0.115 1.688-2.674 5.544-2.698c0.021 0 0 0 0.1 0c3.821 0 5.3 2.5 5.4 2.7 c0.134 0.2 0.1 0.537-0.165 0.687c-0.231 0.137-0.518 0.068-0.661-0.171c-0.055-0.092-1.334-2.172-4.583-2.172 c-0.012 0-0.034 0-0.044 0c-3.326 0.023-4.716 2.216-4.738 2.239C105.725 5.7 105.6 5.8 105.4 5.8"/><path fill="#FDDDB5" d="M108.212 6.663c-0.087 0-0.175-0.023-0.252-0.08c-0.223-0.149-0.286-0.458-0.144-0.686 c0.034-0.057 0.838-1.327 2.71-1.337c0.012 0 0 0 0 0c1.863 0 2.6 1.3 2.7 1.325c0.13 0.2 0.1 0.538-0.168 0.7 c-0.229 0.149-0.518 0.068-0.66-0.171c-0.022-0.023-0.528-0.846-1.829-0.846c-0.011 0-0.011 0-0.022 0 c-1.332 0.012-1.895 0.869-1.904 0.881C108.533 6.6 108.4 6.7 108.2 6.7"/><path fill="#F8971D" d="M114.869 7.554c-0.442-0.297-0.859-0.412-1.247-0.412c-1.464 0-2.588 1.644-3.139 1.7 c-0.286 0.012-0.738-0.413-1.312-0.834c-0.849-0.628-1.938-1.246-3.063-0.468C102.913 9.7 108.5 16 110.5 16 C112.498 16 117.8 9.6 114.9 7.554z"/><path fill="#FABA6A" d="M119.498 4.869c-0.088 0-0.177-0.023-0.254-0.08c-0.22-0.149-0.286-0.457-0.156-0.687 c0.113-0.16 2.582-4.068 8.486-4.103c0.032 0 0.1 0 0.1 0c5.851 0 8.2 3.9 8.3 4.036c0.134 0.2 0.1 0.536-0.166 0.7 c-0.229 0.137-0.518 0.069-0.66-0.172c-0.089-0.148-2.183-3.588-7.525-3.553c-5.389 0.035-7.646 3.622-7.67 3.7 C119.816 4.8 119.7 4.9 119.5 4.9"/><path fill="#FDDDB5" d="M122.419 5.76c-0.089 0-0.177-0.023-0.254-0.08c-0.221-0.148-0.288-0.458-0.144-0.685 c0.064-0.115 1.687-2.674 5.542-2.698c0.021 0 0 0 0.1 0c3.823 0 5.3 2.5 5.4 2.7 c0.134 0.2 0.1 0.537-0.165 0.687c-0.231 0.137-0.518 0.068-0.66-0.171c-0.055-0.092-1.333-2.172-4.584-2.172 c-0.012 0-0.034 0-0.044 0c-3.326 0.023-4.715 2.216-4.737 2.239C122.728 5.7 122.6 5.8 122.4 5.8"/><path fill="#F8971D" d="M131.872 7.554c-0.441-0.297-0.861-0.412-1.247-0.412c-1.466 0-2.588 1.644-3.139 1.7 c-0.286 0.012-0.737-0.413-1.312-0.834c-0.849-0.628-1.938-1.246-3.063-0.468C119.916 9.7 125.5 16 127.5 16 C129.502 16 134.8 9.6 131.9 7.554z"/><path fill="#FDDDB5" d="M136.501 4.869c-0.088 0-0.177-0.023-0.254-0.08c-0.22-0.149-0.286-0.457-0.154-0.687 c0.111-0.16 2.58-4.068 8.485-4.103c0.031 0 0.1 0 0.1 0c5.851 0 8.2 3.9 8.3 4.036c0.132 0.2 0.1 0.536-0.166 0.7 c-0.231 0.137-0.519 0.069-0.662-0.172c-0.088-0.148-2.183-3.588-7.524-3.553c-5.39 0.035-7.647 3.622-7.67 3.7 C136.819 4.8 136.7 4.9 136.5 4.9"/><path fill="#F8971D" d="M148.876 7.554c-0.442-0.297-0.86-0.412-1.248-0.412c-1.464 0-2.587 1.644-3.139 1.7 c-0.286 0.012-0.737-0.413-1.312-0.834c-0.849-0.628-1.938-1.246-3.063-0.468C136.919 9.7 142.5 16 144.5 16 C146.505 16 151.9 9.6 148.9 7.554z"/><path fill="#F8971D" d="M165.879 7.554c-0.442-0.297-0.86-0.412-1.248-0.412c-1.464 0-2.587 1.644-3.139 1.7 c-0.286 0.012-0.737-0.413-1.312-0.834c-0.849-0.628-1.938-1.246-3.063-0.468C153.924 9.7 159.5 16 161.5 16 C163.508 16 168.9 9.6 165.9 7.554z"/><path fill="#FDDDB5" d="M6.194 6.663c-0.088 0-0.176-0.023-0.253-0.08C5.72 6.4 5.7 6.1 5.8 5.9 c0.034-0.057 0.838-1.327 2.711-1.337c0.012 0 0 0 0 0c1.862 0 2.6 1.3 2.7 1.3 c0.132 0.2 0.1 0.538-0.166 0.687c-0.23 0.149-0.518 0.068-0.661-0.171c-0.022-0.023-0.529-0.846-1.83-0.846 c-0.01 0-0.01 0-0.022 0C7.175 5.6 6.6 6.4 6.6 6.436C6.514 6.6 6.4 6.7 6.2 6.7"/><path fill="#F8971D" d="M12.85 7.554c-0.441-0.297-0.859-0.412-1.245-0.412c-1.465 0-2.589 1.644-3.14 1.7 C8.178 8.8 7.7 8.4 7.2 7.967C6.304 7.3 5.2 6.7 4.1 7.499C0.894 9.7 6.4 16 8.5 16 C10.48 16 15.8 9.6 12.8 7.554z"/><path fill="#FDDDB5" d="M20.399 5.76c-0.088 0-0.176-0.023-0.253-0.08c-0.22-0.148-0.287-0.458-0.143-0.685 c0.065-0.115 1.686-2.674 5.542-2.698c0.021 0 0 0 0.1 0c3.823 0 5.3 2.5 5.4 2.7 c0.132 0.2 0.1 0.537-0.166 0.687c-0.231 0.137-0.518 0.068-0.661-0.171C30.129 5.4 28.9 3.3 25.6 3.3 c-0.011 0-0.033 0-0.044 0c-3.327 0.023-4.715 2.216-4.737 2.239C20.709 5.7 20.6 5.8 20.4 5.8"/><path fill="#FABA6A" d="M23.197 6.663c-0.087 0-0.176-0.023-0.253-0.08c-0.22-0.149-0.286-0.458-0.143-0.686 c0.033-0.057 0.837-1.327 2.71-1.337c0.012 0 0 0 0 0c1.861 0 2.6 1.3 2.7 1.325c0.131 0.2 0.1 0.538-0.166 0.7 c-0.231 0.149-0.519 0.068-0.661-0.171c-0.022-0.023-0.529-0.846-1.829-0.846c-0.011 0-0.011 0-0.022 0 c-1.333 0.012-1.895 0.869-1.906 0.881C23.518 6.6 23.4 6.7 23.2 6.7"/><path fill="#F8971D" d="M29.853 7.554c-0.441-0.297-0.86-0.412-1.246-0.412c-1.465 0-2.588 1.644-3.14 1.7 c-0.286 0.012-0.737-0.413-1.311-0.834c-0.849-0.628-1.939-1.246-3.063-0.468C17.898 9.7 23.5 16 25.5 16 S32.83 9.6 29.9 7.554z"/><path fill="#FDDDB5" d="M34.482 4.869c-0.088 0-0.177-0.023-0.254-0.08c-0.22-0.149-0.286-0.457-0.154-0.687 c0.111-0.16 2.58-4.068 8.485-4.103c0.033 0 0.1 0 0.1 0c5.851 0 8.2 3.9 8.3 4.036c0.132 0.2 0.1 0.536-0.166 0.7 c-0.23 0.137-0.518 0.069-0.661-0.172C49.996 4.4 47.9 1 42.6 0.995C37.17 1 34.9 4.6 34.9 4.7 C34.802 4.8 34.6 4.9 34.5 4.9"/><path fill="#FABA6A" d="M37.403 5.76c-0.088 0-0.177-0.023-0.254-0.08c-0.22-0.148-0.287-0.458-0.143-0.685 c0.065-0.115 1.686-2.674 5.542-2.698c0.021 0 0 0 0.1 0c3.823 0 5.3 2.5 5.4 2.7 c0.133 0.2 0.1 0.537-0.166 0.687c-0.231 0.137-0.518 0.068-0.661-0.171c-0.055-0.092-1.333-2.172-4.584-2.172 c-0.011 0-0.033 0-0.043 0c-3.328 0.023-4.715 2.216-4.738 2.239C37.712 5.7 37.6 5.8 37.4 5.8"/><path fill="#F8971D" d="M40.2 6.663c-0.087 0-0.175-0.023-0.253-0.08c-0.221-0.149-0.286-0.458-0.143-0.686 c0.033-0.057 0.837-1.327 2.71-1.337c0.012 0 0 0 0 0c1.861 0 2.6 1.3 2.7 1.325c0.131 0.2 0.1 0.538-0.166 0.7 c-0.231 0.149-0.519 0.068-0.661-0.171c-0.022-0.023-0.529-0.846-1.829-0.846c-0.011 0-0.011 0-0.023 0 c-1.333 0.012-1.895 0.869-1.906 0.881C40.521 6.6 40.4 6.7 40.2 6.7"/><path fill="#F8971D" d="M46.856 7.554c-0.441-0.297-0.86-0.412-1.246-0.412c-1.465 0-2.589 1.644-3.14 1.7 c-0.286 0.012-0.738-0.413-1.311-0.834c-0.849-0.628-1.939-1.246-3.063-0.468C34.901 9.7 40.5 16 42.5 16 C44.487 16 49.8 9.6 46.9 7.554z"/><path fill="#FABA6A" d="M51.485 4.869c-0.088 0-0.176-0.023-0.253-0.08c-0.22-0.149-0.286-0.457-0.154-0.687 c0.111-0.16 2.579-4.068 8.484-4.103c0.033 0 0.1 0 0.1 0c5.852 0 8.2 3.9 8.3 4.036c0.133 0.2 0.1 0.536-0.166 0.7 c-0.23 0.137-0.518 0.069-0.661-0.172C66.999 4.4 64.9 1 59.6 0.995c-5.389 0.035-7.646 3.622-7.669 3.7 C51.805 4.8 51.7 4.9 51.5 4.9"/><path fill="#F8971D" d="M54.406 5.76c-0.088 0-0.176-0.023-0.253-0.08c-0.22-0.148-0.286-0.458-0.143-0.685 c0.065-0.115 1.686-2.674 5.542-2.698c0.021 0 0 0 0.1 0c3.823 0 5.3 2.5 5.4 2.652c0.133 0.2 0.1 0.537-0.166 0.7 c-0.231 0.137-0.518 0.068-0.661-0.171c-0.055-0.092-1.333-2.172-4.584-2.172c-0.011 0-0.034 0-0.044 0 c-3.327 0.023-4.715 2.216-4.737 2.239C54.716 5.7 54.6 5.8 54.4 5.8"/><path fill="#F8971D" d="M57.204 6.663c-0.087 0-0.176-0.023-0.253-0.08c-0.221-0.149-0.286-0.458-0.143-0.686 c0.034-0.057 0.837-1.327 2.711-1.337c0.012 0 0 0 0 0c1.861 0 2.6 1.3 2.7 1.3 c0.131 0.2 0.1 0.538-0.166 0.687c-0.231 0.149-0.519 0.068-0.661-0.171c-0.022-0.023-0.529-0.846-1.829-0.846 c-0.011 0-0.011 0-0.022 0c-1.333 0.012-1.895 0.869-1.906 0.881C57.524 6.6 57.4 6.7 57.2 6.7"/><path fill="#F8971D" d="M63.859 7.554C63.418 7.3 63 7.1 62.6 7.142c-1.465 0-2.589 1.644-3.14 1.7 c-0.286 0.012-0.738-0.413-1.311-0.834c-0.849-0.628-1.939-1.246-3.063-0.468C51.904 9.7 57.5 16 59.5 16 S66.836 9.6 63.9 7.554z"/></svg>