<svg xmlns="http://www.w3.org/2000/svg" viewBox="0 0 285 50"><path fill="#B31E83" d="M195.911 39.854c-0.722 0-1.218-0.302-1.513-0.92l-3.596-7.404l-0.044-0.092h-0.101h-6.174h-0.162V31.6 v6.543c0 0.959-0.754 1.711-1.713 1.711s-1.713-0.752-1.713-1.711V21.181c0-0.958 0.754-1.711 1.713-1.711h7.896 c4.593 0 7.1 2.1 7.1 5.984c0 2.508-1.165 4.399-3.283 5.319l-0.154 0.068l0.076 0.15l3.161 6.4 c0.134 0.3 0.2 0.5 0.2 0.728C197.625 39 197 39.9 195.9 39.9 M184.322 22.586v0.163v5.622v0.161h0.162h6.543 c2.16 0 3.143-1.58 3.143-3.049c0-1.441-0.971-2.897-3.143-2.897h-6.543H184.322z"/><path fill="#B31E83" d="M204.042 39.984c-0.998 0-1.722-0.723-1.722-1.717V21.082c0-0.98 0.74-1.717 1.722-1.717 c0.965 0 1.7 0.8 1.7 1.717V38.27C205.764 39.3 205 40 204 40"/><path fill="#B31E83" d="M61.656 37.98c0 0.928-0.715 1.821-1.822 1.821c-0.804 0-1.312-0.358-1.61-0.987l-3.495-7.192h-6v6.358 c0 1.015-0.806 1.821-1.823 1.821c-1.014 0-1.82-0.808-1.82-1.821V21.499c0-1.014 0.806-1.819 1.82-1.819h7.674 c4.956 0 7.1 2.4 7.1 5.968c0 2.33-1.014 4.33-3.283 5.316l3.074 6.239C61.567 37.4 61.7 37.7 61.7 38 M55.088 23.022h-6.359v5.464h6.359c2 0 2.896-1.463 2.896-2.809C57.984 24.4 57.1 23 55.1 23"/><path fill="#B31E83" d="M68.744 40.035c-1.227 0-2.062-0.918-2.062-2.057V21.505c0-1.14 0.877-2.06 2.062-2.06 c1.181 0 2.1 0.9 2.1 2.06V37.98C70.802 39.1 70 40 68.7 40"/><path fill="#B31E83" d="M85.29 19.357c5.302 0 9.2 4 9.2 9.157v9.549c0 1.142-0.92 2.062-2.06 2.1 c-1.14 0-2.06-0.92-2.06-2.062V28.033c0-2.761-2.189-4.907-5.082-4.907c-2.891 0-5.038 2.146-5.038 4.907v10.029 c0 1.142-0.919 2.062-2.062 2.062c-1.138 0-2.057-0.92-2.057-2.062v-9.549C76.133 23.4 80 19.4 85.3 19.4"/><path fill="#B31E83" d="M116.773 36.533c-1.964 2.445-5.224 3.623-8.243 3.623c-6.427 0-10.323-4.711-10.323-10.414 c0-6.099 4.407-10.416 10.263-10.416c2.356 0 5 0.8 6.7 2.565c0.36 0.4 0.6 0.8 0.6 1.2 c0 0.905-0.634 1.688-1.661 1.688c-0.422 0-0.816-0.149-1.207-0.421c-1.149-0.875-2.386-1.661-4.439-1.661 c-3.954 0-6.55 2.989-6.55 7.005c0 4.1 2.4 7.2 6.6 7.184c2.053 0 3.864-0.725 5.042-1.812v-3.108h-3.924 c-0.905 0-1.69-0.725-1.69-1.66c0-0.964 0.785-1.659 1.69-1.659h5.673c1.06 0 1.9 0.8 1.9 1.873v4.799 C117.195 35.9 117.1 36.1 116.8 36.5"/><path fill="#B31E83" d="M29.417 19.619c3.006 0 5.3 1.5 6.6 3.713v-1.458c0-1.148 0.838-2.077 2.076-2.077 c1.238 0 2.1 0.9 2.1 2.077v15.733c0 1.148-0.707 2.078-1.989 2.078c-1.28 0-2.034-0.975-2.034-2.123V36.15 c-1.37 2.562-3.754 3.711-6.719 3.711c-5.081 0-9.057-4.111-9.057-10.121C20.36 23.7 24.3 19.6 29.4 19.6 M30.094 36.4 c3.667 0 5.658-3.271 5.658-6.675c0-3.402-1.991-6.672-5.658-6.672c-3.582 0-5.834 2.693-5.834 6.672S26.512 36.4 30.1 36.4"/><path fill="#B31E83" d="M14.981 35.184c0.398-0.271 0.799-0.427 1.23-0.427c1.046 0 1.7 0.8 1.7 1.7 c0 0.493-0.214 0.894-0.583 1.266c-1.753 1.812-4.46 2.613-6.861 2.613C4.43 40.4 0 36.2 0 29.7 c0-6.43 4.43-10.615 10.458-10.615c2.401 0 5.1 0.8 6.9 2.614c0.369 0.4 0.6 0.8 0.6 1.3 c0 0.925-0.645 1.725-1.691 1.725c-0.432 0-0.832-0.154-1.23-0.432c-1.168-0.892-2.43-1.692-4.523-1.692 c-4.029 0-6.675 3.048-6.675 7.139c0 4.1 2.6 7.1 6.7 7.136C12.551 36.9 13.8 36.1 15 35.2"/><path fill="#B31E83" d="M169.52 39.833h-7.483c-0.956 0-1.731-0.79-1.731-1.763V21.199c0-0.97 0.76-1.729 1.731-1.729h7.175 c3.862 0 6.4 1.9 6.4 4.962c0 2.351-1.737 3.632-3.195 4.292l-0.441 0.199l0.475 0.11c2.64 0.6 4.3 2.5 4.3 5 C176.689 36.8 174.4 39.8 169.5 39.8 M163.768 30.605v0.164v5.84v0.164h0.162h5.902c2.062 0 3.396-1.234 3.396-3.146 c0-1.778-1.408-3.022-3.428-3.022h-5.869H163.768z M163.768 22.527v0.163v4.691v0.165h0.162h5.438c1.871 0 2.708-1.284 2.708-2.554 c0-1.497-1.062-2.466-2.708-2.466h-5.438L163.768 22.527L163.768 22.527z"/><path fill="#B31E83" d="M218.104 39.833h-5.684c-0.971 0-1.761-0.79-1.761-1.765V21.201c0-0.956 0.79-1.729 1.761-1.729h5.684 c5.976 0 10.1 4.2 10.1 10.18C228.253 35.6 224.1 39.8 218.1 39.8 M214.12 22.651v0.165v13.668v0.166h0.164h3.634 c4.178 0 6.875-2.75 6.875-7c0-4.25-2.699-7-6.875-7h-3.634H214.12z"/><path fill="#B31E83" d="M249.968 36.438c-1.961 2.443-5.218 3.619-8.233 3.619c-6.426 0-10.315-4.703-10.315-10.404 c0-6.095 4.401-10.407 10.254-10.407c2.353 0 5 0.8 6.7 2.563c0.365 0.4 0.6 0.8 0.6 1.2 c0 0.906-0.634 1.688-1.658 1.688c-0.424 0-0.815-0.149-1.209-0.423c-1.146-0.875-2.383-1.658-4.434-1.658 c-3.951 0-6.545 2.986-6.545 6.998c0 4.1 2.4 7.2 6.6 7.18c2.049 0 3.859-0.725 5.035-1.811v-3.106h-3.922 c-0.902 0-1.688-0.726-1.688-1.658c0-0.964 0.785-1.657 1.688-1.657h5.672c1.055 0 1.9 0.8 1.9 1.868v4.796 C250.389 35.8 250.3 36 250 36.4"/><path fill="#B31E83" d="M263.884 39.893c-7.069 0-10.233-5.164-10.233-10.276c0-5.859 4.32-10.278 10.052-10.278 c5.399 0 9.3 4.3 9.3 10.323c0 0.389-0.144 1.294-1.478 1.294h-13.633h-0.175l0.012 0.174c0.253 3.5 2.7 5.7 6.3 5.7 c2.479 0 3.901-0.873 5.398-2.277c0.242-0.241 0.729-0.64 1.305-0.64c0.803 0 1.6 0.6 1.6 1.6 c0 0.367-0.165 0.734-0.506 1.122C270.135 38.6 267.1 39.9 263.9 39.9 M263.702 22.43c-3.054 0-5.411 2.092-5.862 5.2 l-0.025 0.188h0.188h11.217h0.188l-0.025-0.187C268.973 24.6 266.6 22.4 263.7 22.4"/><path fill="#B31E83" d="M285 36.391c0 1.868-1.621 3.264-3.678 3.264c-2.059 0-3.678-1.396-3.678-3.264 c0-1.869 1.619-3.263 3.678-3.263C283.379 33.1 285 34.5 285 36.4 M278.816 36.391c0 1.3 1.2 2.1 2.5 2.1 s2.504-0.793 2.504-2.09s-1.151-2.09-2.504-2.09C279.971 34.3 278.8 35.1 278.8 36.4"/><path fill="#B31E83" d="M284.307 26.639c0.332 0 0.6 0.2 0.6 0.581c0 0.259-0.125 0.421-0.35 0.517l-2.568 1.115v1.916h2.27 c0.363 0 0.6 0.3 0.6 0.584c0 0.323-0.286 0.58-0.648 0.58h-5.884c-0.36 0-0.649-0.257-0.649-0.58v-2.453 c0-1.584 0.873-2.26 2.131-2.26c0.832 0 1.5 0.3 1.9 1.049l2.228-0.98C284.115 26.7 284.2 26.6 284.3 26.6 M278.966 28.736v2.031h1.95v-2.031c0-0.641-0.521-0.926-1-0.926C279.445 27.8 279 28.1 279 28.7"/><path fill="#B31E83" d="M283.721 19.901c0.862 0.6 1.3 1.6 1.3 2.604c0 2.032-1.664 3.263-3.678 3.3 c-2.154 0-3.678-1.395-3.678-3.245c0-0.744 0.276-1.582 0.905-2.127c0.128-0.113 0.267-0.182 0.438-0.182 c0.318 0 0.6 0.2 0.6 0.526c0 0.133-0.054 0.258-0.15 0.381c-0.31 0.363-0.586 0.754-0.586 1.4 c0 1.3 1.1 2.1 2.5 2.07c1.449 0 2.537-0.763 2.537-2.088c0-0.647-0.256-1.222-0.641-1.593h-1.097v1.239 c0 0.286-0.256 0.535-0.586 0.535c-0.341 0-0.586-0.249-0.586-0.535v-1.793c0-0.334 0.298-0.592 0.661-0.592h1.693 C283.484 19.8 283.6 19.8 283.7 19.9"/><path fill="#B31E83" d="M274.786 36.816c0.888 0 1.6 0.7 1.6 1.644c0 0.931-0.705 1.653-1.601 1.7 c-0.889 0-1.606-0.725-1.606-1.653c0-0.912 0.72-1.644 1.606-1.644H274.786z M274.777 37.072c-0.715 0-1.299 0.619-1.299 1.4 c0 0.8 0.6 1.4 1.3 1.396c0.72 0 1.299-0.614 1.299-1.389c0-0.775-0.579-1.396-1.299-1.396h-0.008V37.072z M274.475 39.416h-0.289v-1.831c0.15-0.024 0.297-0.045 0.513-0.045c0.274 0 0.5 0.1 0.6 0.1 c0.109 0.1 0.2 0.2 0.2 0.381c0 0.238-0.155 0.387-0.352 0.442v0.017c0.157 0 0.3 0.2 0.3 0.4 c0.043 0.3 0.1 0.4 0.1 0.45h-0.304c-0.043-0.057-0.086-0.225-0.123-0.467c-0.043-0.233-0.161-0.321-0.389-0.321h-0.205 v0.788H274.475z M274.475 38.4h0.211c0.236 0 0.438-0.086 0.438-0.312c0-0.161-0.114-0.323-0.438-0.323 c-0.096 0-0.16 0.008-0.211 0.016V38.4z"/><radialGradient id="SVGID_1_" cx="129.5" cy="29.3" r="24" gradientUnits="userSpaceOnUse"><stop offset="0" style="stop-color:#FCBE78"/><stop offset="1" style="stop-color:#F89720"/></radialGradient><path fill="url(#SVGID_1_)" enable-background="new    " d="M147.938 22.045c-4.549 0-8 4.954-9.719 4.987h-0.018 c-0.875 0-2.281-1.244-4.025-2.489c-1.745-1.245-3.829-2.488-6.059-2.488c-1.116 0-2.267 0.312-3.432 1.1 c-9.875 6.6 7.3 25.5 13.5 25.473l0 0c6.23 0 22.785-19.262 13.58-25.322C150.447 22.4 149.2 22 147.9 22"/><path fill="#F89720" d="M113.152 14.616c-0.274 0-0.55-0.076-0.798-0.233c-0.691-0.44-0.896-1.357-0.456-2.049 c0.316-0.499 7.968-12.223 26.237-12.333c18.32-0.121 25.5 11.6 25.8 12.108c0.422 0.7 0.2 1.618-0.51 2 c-0.705 0.423-1.619 0.194-2.043-0.511c-0.264-0.434-6.68-10.665-23.037-10.665c-0.081 0-0.158 0.001-0.239 0 c-16.581 0.1-23.46 10.513-23.746 10.956C114.123 14.4 113.6 14.6 113.2 14.6"/><path fill="#FAAA4E" d="M138.22 6.882c-0.055 0-0.11 0-0.165 0.001c-11.913 0.071-16.936 7.77-17.144 8.1 c-0.439 0.691-0.235 1.6 0.5 2.047c0.248 0.2 0.5 0.2 0.8 0.235c0.489 0 0.969-0.242 1.254-0.682 c0.175-0.272 4.428-6.661 14.654-6.723h0.097c10.106 0 14.1 6.3 14.2 6.522c0.279 0.5 0.8 0.7 1.3 0.7 c0.26 0 0.524-0.068 0.764-0.212c0.705-0.423 0.934-1.337 0.51-2.041C154.77 14.5 150.1 6.9 138.2 6.9"/><path fill="#FCBE78" d="M138.058 13.688h-0.077c-5.788 0.035-8.278 3.85-8.381 4.013c-0.44 0.693-0.235 1.6 0.5 2.1 c0.248 0.2 0.5 0.2 0.8 0.232c0.492 0 0.974-0.244 1.257-0.689c0.017-0.026 1.771-2.607 5.887-2.633l0.059-0.001 c4.024 0 5.6 2.4 5.7 2.527c0.279 0.5 0.8 0.7 1.3 0.724c0.262 0 0.523-0.068 0.764-0.213 c0.705-0.423 0.934-1.336 0.51-2.04C146.18 17.5 143.8 13.7 138.1 13.7"/></svg>