<svg xmlns="http://www.w3.org/2000/svg" viewBox="0 0 1000 502" enable-background="new 0 0 1000 502"><rect x="2.8" y="2.7" fill="#336699" width="991.9" height="496.7"/><path fill="#FEFEFE" d="M566.7,55.9H2.8c-2.5,0-2.5-9.2,0-9.2h563.9c2.5,0,4.6,2.1,4.6,4.6C571.3,53.8,569.3,55.9,566.7,55.9z"/><path fill="#FEFEFE" d="M116.2,496.3V2.6c0-2.5,9.2-2.5,9.2,0v493.8C125.4,498.9,116.2,498.9,116.2,496.3z"/><path fill="#009966" d="M121,356.2c-41.8,0-82.1-8.3-120-24.7l3.6-8.4C41.4,339,80.5,347,121,347C283.8,347,416.2,214.2,416.2,51 c0-16.2-1.3-32.5-3.9-48.3c-0.1-0.7,9.1-1.1,9.4,0.2c2.5,15.8,3.8,32,3.8,48.1C425.4,219.3,288.8,356.2,121,356.2z"/><path fill="#FEFEFE" d="M121,344.5c-41.1,0-80.8-8.4-118.2-25c-0.6-0.3-0.4-10.3,1.9-9.2c36.7,16.6,75.9,25.1,116.3,25.1 c156.1,0,283.1-127.5,283.1-284.3c0-16.5-1.4-32.7-4.2-48.6c-0.2-1.2,9.1-1.1,9.4,0.1c2.7,15.9,4,32.1,4,48.5 C413.3,212.8,282.2,344.5,121,344.5z"/><polyline fill="#FEFEFE" points="141.8,0.9 121,51 121,1.4 	"/><polyline fill="#009966" points="121,1 121,51 100.5,1.1 	"/><polygon fill="#FEFEFE" points="229.1,1.1 224.3,8.6 121,51 171.3,0.6 	"/><polygon fill="#3399CC" points="121,51 141.9,1.1 171.1,0.9 	"/><polygon fill="#FEFEFE" points="420.2,51.3 223.7,94.2 121,51"/><polygon fill="#009966" points="121,51 224.6,8.4 420.2,51.3"/><polygon fill="#FEFEFE" points="332.3,263.7 163.2,154.3 121,51"/><polygon fill="#3399CC" points="121,51 224.3,94.2 332.3,263.7"/><polygon fill="#FEFEFE" points="120.8,351.3 78,154 121,51"/><polygon fill="#009966" points="121,51 163.5,154.6 120.8,351.3"/><polyline fill="#FEFEFE" points="2.8,117.1 18.1,93.6 121,51 2.8,168.7"/><polyline fill="#3399CC" points="2.8,168.7 121,51 78,154.6 2.8,202.6"/><polyline fill="#009966" points="2.8,50.8 126.1,51 17.5,93.6 2.8,90.4"/><polyline fill="#FEFEFE" points="96.4,0.6 116.8,50.4 67.5,0.8"/><polyline fill="#FEFEFE" points="2.8,11.2 18.4,7.8 121,51 2.8,50.8"/><polyline fill="#3399CC" points="70.3,1.1 117.7,48 16,4.4 13.3,0.4"/><path fill="#009966" d="M116.4,55.2L139,0.7l94,0.3l-5.3,8.3L116.4,55.2z M147.5,4.3l-14.1,34l82.4-34L147.5,4.3z"/><polygon fill="#009966" points="122,51.4 120.1,50.6 139.8,0.9 142,0.9"/><path fill="#009966" d="M116.8,48c-0.1,0-0.3,0-0.4-0.1L17.1,7c-0.2-0.1-0.3-0.2-0.4-0.4l-3.8-5.9l2.3,0l3.1,4.5l96.8,40L96.4,1 l2.2,0l19.2,45.7c0.2,0.4,0.1,0.8-0.2,1.1C117.4,47.9,117.1,48,116.8,48z"/><path fill="#009966" d="M16.9,95.8c-0.2,0-0.5,0-0.7-0.1l-14.1-3L3.5,86l13,2.8L106.1,51L15.7,13.8L3.5,16.4L2.1,9.6l13.2-2.8 c0.7-0.1,1.4-0.1,2,0.2l99,40.8c1.3,0.5,2.1,1.8,2.1,3.2c0,1.4-0.8,2.6-2.1,3.2L18.2,95.6C17.8,95.8,17.4,95.8,16.9,95.8z"/><path fill="#009966" d="M5.3,206.3l-5-7.7l71.9-46.7l36.2-88.4l-86.9,36.8l-18.7,28L2,113.1l12.6-19.1c0.5-0.8,1.2-1.3,2-1.7 L115,50.7c1.7-0.7,3.7-0.3,5,1c1.3,1.3,1.7,3.3,1,5l-40.9,100c-0.4,0.9-1,1.6-1.8,2.1L5.3,206.3z"/><path fill="#009966" d="M120.4,355.9C120.4,355.9,120.4,355.9,120.4,355.9c-2.2,0-4.1-1.5-4.5-3.7L75.3,157.1 c-0.2-0.9-0.1-1.8,0.2-2.7l40.9-99.7c0.7-1.7,2.4-2.8,4.3-2.9h0c1.9,0,3.5,1.1,4.3,2.8l41.2,100c0.4,0.9,0.4,1.8,0.2,2.7 l-41.5,194.9C124.5,354.4,122.6,355.9,120.4,355.9z M84.6,156.6L120.5,329l36.7-172.2l-36.4-88.3L84.6,156.6z"/><path fill="#009966" d="M334.4,270.1c-0.9,0-1.8-0.2-2.5-0.8L163.7,158.5c-0.8-0.5-1.4-1.2-1.7-2.1L121,57.2c-0.7-1.7-0.3-3.7,1-5 c1.3-1.3,3.3-1.7,5-1l99.3,41.1c0.9,0.4,1.6,1,2.1,1.7l109.4,168.3c0.8,0.8,1.3,1.9,1.3,3.2C339.1,268.1,337,270.1,334.4,270.1 C334.5,270.1,334.4,270.1,334.4,270.1z M169.9,151.6l148.7,98l-97.1-149.2L133.7,64L169.9,151.6z"/><path fill="#009966" d="M225.8,96.9c-0.6,0-1.2-0.1-1.8-0.4l-99.6-41.4c-1.7-0.7-2.8-2.4-2.8-4.3c0-1.9,1.1-3.5,2.8-4.2l99.9-41.1 c0.9-0.3,1.8-0.4,2.7-0.2l194.1,41.4c2.1,0.5,3.6,2.3,3.6,4.5c0,2.2-1.5,4-3.6,4.5L226.7,96.8C226.4,96.9,226.1,96.9,225.8,96.9z M138.2,51l88,36.5L398,51.2L226.5,14.7L138.2,51z"/><path fill="#FFFFFF" d="M511.5,229.2h-18.5c-0.6-5.8-1.3-9.8-2-12c 0.7-2.2-2.6-3.8-5.6-4.9c-3.1-1.1-6.1-1.6-9.2-1.6 c-3.8,0-7,0.6-9.6,1.9c-2.6,1.3-4.3,3.2-5.3,5.9c-1,2.6-1.4,5.7-1.4,9v2.3v33.4c0,3.9,0.4,7.2,1,10.1c0.6,2.9,2.5,5.1,5.7,6.7 c3.2,1.5,6.7,2.3,11,2.3h2.8l3.2-0.6c4.9-1.5,7.7-4,8.4-7.1c0.7-3.2,1.1-5.9,1.1-8.1v-6.1h18.5v4c0,3.2-0.3,6-0.6,8.7 c-0.4,2.7-1.2,5.1-2.1,7.5c-1.7,4.1-4.9,7.4-9.4,9.5c-4.5,2.2-8.6,3.8-12.2,4.5c-3.5,0.7-7.2,1.1-11,1.1c-7.4,0-13.6-1.1-18.6-3.2 c-4.9-2.1-9-5.1-12-9.1c-2.9-4-4.4-9.8-4.4-17.5V229c0-6.7,0.6-12.1,1.9-16c1.3-4.1,4.2-7.3,8.9-9.8c4.6-2.5,8.9-4.1,12.7-4.9 c3.9-0.7,8-1.1,12.3-1.1c2.6,0,5.1,0.1,7.5,0.4c2.4,0.3,4.9,0.7,7.4,1.3c4.8,1.1,9.1,3.1,13.1,6.1c3.9,3,5.8,6.7,5.8,11.1l0.6,5.3 V229.2z"/><polygon fill="#FFFFFF" points="528,198.4 546.6,198.4 546.6,236.2 577.6,236.2 577.6,198.4 596.2,198.4 596.2,294.4 577.6,294.4 577.6,250.5 546.6,250.5 546.6,294.4 528,294.4"/><path fill="#FFFFFF" d="M635.8,258.1h18.8l-10-44.1L635.8,258.1z M630.1,199.3h29.8l23.1,96h-19.4l-6.2-23.8h-24.1l-5.2,23.8 h-19.2L630.1,199.3z"/><path fill="#FFFFFF" d="M714.7,241.1h15.5c2.5,0,4.7-0.5,6.5-1.3c1.8-0.9,3.6-2.6,5.2-5.1c1.4-1.9,2.1-4.3,2.1-7.4 c0-4-0.9-7.2-2.8-9.4c-2-2.2-4.9-3.9-8.9-4.8c-1.7-0.3-3.7-0.5-5.8-0.8c-2.2-0.3-4.3-0.4-6.4-0.4h-3.1h-2.2V241.1z M729.8,255.4 h-15.1v39h-18.5v-96h22c10.1,0,18.3,0.6,24.6,1.9c6.4,1.3,11,3.9,13.8,7.7c1.3,1.8,2.5,3.5,3.4,5.2c0.9,1.6,1.6,3.2,2.1,4.9 c0.5,1.6,0.8,3.1,1,4.5c0.3,1.3,0.4,3,0.4,4.7c0,3.1-0.4,5.9-1.3,8.7c-0.9,2.8-2.1,5-3.6,6.7l-3.4,3.8c-0.5,0.6-1.5,1.4-3.1,2.4 c4,3,6.5,6.1,7.7,9.6c1.3,3.5,2,8.2,2,14v10.8c0,3.9,0.5,7.5,1.7,11h-20.4l-0.8-4.8c-0.3-2-0.4-3.8-0.4-5.2l-0.5-10.8 c0-5-0.8-9.4-2.4-12.9C737.1,257.1,734.1,255.4,729.8,255.4z"/><rect x="781.3" y="198.4" fill="#FFFFFF" width="18.5" height="96"/><polygon fill="#FFFFFF" points="812.9,212.3 812.9,198.6 877.2,198.6 877.2,212.3 854.7,212.3 854.7,294.6 836.2,294.6 836.2,212.3"/><polygon fill="#FFFFFF" points="888.8,198.4 909.3,198.4 927.4,238.7 945.5,198.4 965.9,198.4 936.6,260.4 936.6,294.4 918.1,294.4 918.1,260.4"/><polygon fill="#FFFFFF" points="324,373.8 324,438.4 305.5,438.4 305.5,342.5 326.9,342.5 359.5,406.9 359.5,342.5 378,342.5 378,438.4 357,438.5"/><path fill="#FFFFFF" d="M416.4,401.2h18.8l-10-44.1L416.4,401.2z M410.8,342.5h29.8l23.1,95.9h-19.5l-6.1-23.8h-24.1l-5.2,23.8 h-19.2L410.8,342.5z"/><polygon fill="#FFFFFF" points="460.5,342.5 481,342.5 499.3,416.8 517,342.5 537,342.5 513,438.4 486.2,438.4"/><rect x="547.5" y="342.5" fill="#FFFFFF" width="18.5" height="95.9"/><path fill="#FFFFFF" d="M635.1,399h-17.4v-13.4h34.5v53l-14.2-9c-1.6,2.2-3.9,4.3-6.8,6.3c-3,2-5.9,3.1-9,3.3l-6.3 0.5 c-3.2,0-5.9-0.3-8.1-0.8c-2.2-0.5-5.7-1.7-10.3-3.7c-4.8-2-8.2-5.1-10.5-9.5c-2.2-4.4-3.3-9.7-3.3-15.7v-36.8 c0-6.7,0.6-12.1,1.9-16c1.3-4,4.1-7.2,8.6-9.6c4.4-2.4,8.8-4.1,13.1-5c1.9-0.4,3.9-0.6,6.1-0.9c2.2-0.3,4.1-0.4,6-0.4 c4.9,0,10.8,1,17.8,3c7,1.9,11.5,5.4,13.4,10.4c1,2.6,1.7,4.8,2.2,6.5c0.5,1.8,0.7,3.1,0.7,4l0.3,8.2h-18.5 c0-4.2-0.5-7.7-1.4-10.6c-0.9-2.9-2.9-5-5.9-6c-3.1-1.2-6-1.7-9.2-1.7c-3.8,0-7,0.6-9.6,1.9c-2.5,1.3-4.4,3.2-5.4,6 c-1,2.7-1.5,5.8-1.5,9.3v1.8v33.4c0,4.1,0.4,7.5,1.1,10.2c0.7,2.7,2.6,4.9,5.8,6.5c3.1,1.5,6.7,2.3,10.8,2.3c2.2,0,5-0.5,8.4-1.5 c3.4-1.1,5.4-3.2,6.1-6.4c0.6-3.2,1-5.9,1-8.3v-5.9V399z"/><path fill="#FFFFFF" d="M688.4,401.2h18.8l-10-44.1L688.4,401.2z M682.8,342.5h29.8l23,95.9h-19.4l-6.2-23.8h-24l-5.3,23.8h-19.1 L682.8,342.5z"/><polygon fill="#FFFFFF" points="733.8,356.4 733.8,342.7 798.2,342.7 798.2,356.4 775.7,356.4 775.7,438.7 757.2,438.7 757.2,356.4"/><path fill="#FFFFFF" d="M859,370.8c0-5.5-1.1-9.5-3.4-12.2c-2.2-2.6-6.7-4-13.1-4c-6.5,0-10.9,1.3-13.1,3.9 c-2.3,2.6-3.4,6.7-3.4,12.2V410c0,5.2,1.1,9.3,3.3,12.2c2.2,2.6,6.6,3.9,13.2,3.9c6.1,0,10.4-1.3,12.9-4.1c2.4-2.7,3.6-6.7,3.6-12 V370.8z M877.6,405.8c0,10.6-2.3,18.9-7,24.9c-4.7,6-14,9-28,9c-14.1,0-23.5-3.1-28.2-9.1c-4.6-6.1-6.9-14.4-6.9-24.8v-30.7 c0-13.6,3.1-22.6,9.3-27.1c6.1-4.5,14.8-6.7,25.8-6.7c13.9,0,23.1,3,27.9,8.8c4.8,5.9,7.1,14.2,7.1,25V405.8z"/><path fill="#FFFFFF" d="M912.2,385.2h15.5c2.6,0,4.8-0.4,6.6-1.3c1.8-0.9,3.5-2.6,5.2-5.1c1.3-1.9,2.1-4.3,2.1-7.3 c0-4.1-1-7.2-2.9-9.5c-1.9-2.2-4.9-3.8-8.9-4.7c-1.6-0.4-3.6-0.6-5.8-0.9c-2.2-0.2-4.3-0.4-6.3-0.4h-3.2h-2.2V385.2z M927.3,399.5 h-15.1v39h-18.5v-95.9h22c10,0,18.2,0.6,24.6,1.9c6.3,1.3,10.9,3.8,13.8,7.7c1.3,1.7,2.5,3.5,3.3,5.1c0.9,1.7,1.6,3.3,2.1,4.9 c0.5,1.6,0.8,3.2,1.1,4.5c0.2,1.4,0.3,3,0.3,4.8c0,3-0.4,5.9-1.3,8.7c-0.9,2.8-2.1,5-3.5,6.6l-3.5,3.8c-0.5,0.7-1.5,1.5-3,2.5 c3.9,2.9,6.5,6.1,7.7,9.5c1.3,3.5,1.9,8.2,1.9,14v10.9c0,3.8,0.5,7.5,1.7,10.9h-20.4l-0.8-4.7c-0.3-2.1-0.5-3.8-0.5-5.3l-0.4-10.8 c0-5-0.8-9.4-2.4-12.9C934.7,401.3,931.7,399.5,927.3,399.5z"/><polygon fill="#009966" points="2.8,175.7 2.1,162.9 117.8,47.7 124.3,54.3"/><path fill="#009966" d="M121,53.3c-0.9,0-1.8-0.6-2.1-1.4L98,0.9l5.1,0.3l15.6,38.1l0-38.3l4.6,0.1l0,50c0,1.1-0.8,2-1.9,2.3 C121.3,53.3,121.2,53.3,121,53.3z"/><path fill="#333333" d="M995.9,501.6H2.8c-1.3,0-2.3-1-2.3-2.3V2.7c0-1.3,1-2.3,2.3-2.3h993.1c1.3,0,2.3,1,2.3,2.3v496.7 C998.2,500.6,997.2,501.6,995.9,501.6z M5.1,497h988.5V5H5.1V497z"/><path fill="#009966" d="M120.8,355.9c-0.2,0-0.3,0-0.5,0c-2.3-0.3-4.1-2.2-4.1-4.6L116.4,51c0-2.2,1.6-4.1,3.7-4.5 c2.2-0.4,4.3,0.7,5.1,2.8l42.5,103.6c0.4,0.9,0.4,1.8,0.2,2.7l-42.7,196.7C124.8,354.4,122.9,355.9,120.8,355.9z M125.6,74.3 0.2,234l33.3-153.3L125.6,74.3z"/></svg>