<svg xmlns="http://www.w3.org/2000/svg" viewBox="0 -0.03 60 30"><rect fill="#222060" width="60" height="15"/><rect y="15" fill="#35689B" width="60" height="15"/><polygon fill="#FAEA61" points="32.2,17.6 30.3,19 31,21.2 29.1,19.8 27.2,21.2 27.9,19 26,17.6 28.4,17.6 29.1,15.3 29.8,17.6 32.2,17.6"/><polygon fill="#FAEA61" points="40.7,17.6 38.8,19 39.5,21.2 37.6,19.8 35.7,21.2 36.4,19 34.5,17.6 36.9,17.6 37.6,15.3 38.3,17.6 40.7,17.6"/><polygon fill="#FAEA61" points="49.2,17.6 47.3,19 48,21.2 46.1,19.8 44.2,21.2 44.9,19 43,17.6 45.4,17.6 46.1,15.3 46.8,17.6 49.2,17.6"/><polygon fill="#FAEA61" points="57.7,17.6 55.8,19 56.5,21.2 54.6,19.8 52.7,21.2 53.4,19 51.5,17.6 53.9,17.6 54.6,15.3 55.3,17.6 57.7,17.6"/><path fill="#349ACD" d="M9.076 5.609L3.296 3.17L3.291 3.158l5.834-2.465L9.598 0h-3.15H4.594L3.287 3.148L1.957 0H0v1.79 l3.28 1.376L0 4.597v5.04l0.902-0.639l0.007-0.017l2.372-5.811l0.002-0.003l0.002 0.001l2.469 5.878l8.68 5.7 c0.035-0.034 0.324-0.311 0.391-0.378L9.076 5.609z"/><polygon fill="none" points="3.2,3.3 3.1,3.7 3.2,3.3"/><polygon fill="none" points="3.3,3.2 3.3,3.2 3.3,3.2 5.8,9 3.3,3.2"/><path fill="#009A66" d="M0.909 8.981l2.027 10.172c0.05 0 0.5 0 0.5 0.008L5.754 9.047L3.283 3.174L3.281 3.2 L3.233 3.289h0.002L3.071 3.688L0.909 8.981z"/><polygon fill="#009A66" points="4.6,0 4.4,0 3.3,0 2,0 3.3,3.1"/><path fill="#009A66" d="M3.296 3.17l5.78 2.439l10.314-2.193l0.104-0.021c0.002-0.125 0.01-0.248 0.01-0.373 c0-0.021-0.002-0.043-0.002-0.064l-0.111-0.024L9.141 0.697L9.125 0.693L3.291 3.158L3.296 3.17z"/><polygon fill="#009A66" points="0,1.8 0,2.1 0,3.2 0,4.6 3.3,3.2"/><path fill="#009A66" d="M20.379 3.09c0-0.031-0.002-0.062-0.002-0.092C20.37 2 20.3 1 20.1 0h-0.136h-0.194h-0.048 c0.183 1 0.3 2 0.3 2.998c0 0 0 0 0 0.069c0 0 0 0 0 0 c0 0.064-0.004 0.127-0.005 0.189C20.002 3.3 20 3.3 20 3.373c-0.072 4.478-1.904 8.535-4.836 11.5 c-0.067 0.067-0.136 0.135-0.205 0.201c-3 2.941-7.096 4.766-11.611 4.8c-0.002 0-0.003 0-0.004 0c-0.002 0-0.003 0-0.005 0 c-0.039 0-0.077 0.003-0.116 0.003c-0.034 0-0.066-0.002-0.101-0.002c-0.052-0.001-0.103-0.004-0.153-0.004 C1.955 19.9 1 19.8 0 19.571v0.075v0.195v0.107c0.964 0.2 2 0.3 3 0.301c0.062 0 0.1 0 0.2 0 c0.021 0 0 0 0.1 0.001c0.04 0 0.08-0.003 0.121-0.003c0.001 0 0 0 0 0c9.311-0.067 16.879-7.588 17.024-16.881 c0.001-0.031 0.002-0.062 0.003-0.092c0-0.061 0.004-0.121 0.004-0.182C20.379 3.1 20.4 3.1 20.4 3.09z"/><path fill="#FFFFFF" d="M28.396 3.09V2.998h-8.02c0 0.03-0.004 0.344-0.005 0.375h8.024V3.281h0.001L28.396 3.09L28.396 3.09z"/><polygon fill="#FFFFFF" points="9.1,0.6 9.4,0 6.4,0 3.6,2.9"/><polygon fill="#FFFFFF" points="0,4.8 0,6.3 2.7,3.6"/><polygon fill="#FFFFFF" points="1.7,0 0,0 3,2.8"/><polygon fill="#FFFFFF" points="4.4,0 3.3,0 3.3,2.7"/><polygon fill="#FFFFFF" points="19.3,3.3 12.6,3.3 3.7,3.2 9.2,5.4"/><polygon fill="#FFFFFF" points="0,2.1 0,3.2 2.9,3.2"/><path fill="#FFFFFF" d="M3.223 20.257c-0.022 0-0.045-0.001-0.066-0.001c-0.062-0.001-0.125-0.004-0.188-0.006v8.068h0.188h0.188 h0.004v-8.064c-0.002 0-0.003 0-0.004 0C3.303 20.3 3.3 20.3 3.2 20.257z"/><path fill="#FFFFFF" d="M20.004 2.998h-0.125C19.877 2 19.8 1 19.6 0H19.27h-0.055c0.184 1 0.3 1.9 0.3 3 c0 0.021-0.006 0.312-0.008 0.438c-0.076 3.34-1.174 6.432-2.992 8.975c-0.507 0.708-1.066 1.375-1.678 2 c-0.066 0.067-0.137 0.133-0.204 0.199L3.516 3.484l2.354 5.467l8.67 5.686c-0.035 0.034-0.07 0.067-0.105 0.102l0 0 c0 0 0 0-0.001 0c-2.861 2.697-6.706 4.362-10.933 4.39c-0.036 0.001-0.07 0.003-0.105 0.003c-0.05 0-0.098-0.004-0.147-0.004 L3.252 15L3.211 3.611L1.008 8.992L2.251 15l0.859 4.123c-0.049 0-0.098-0.002-0.147-0.003C1.949 19.1 1 19 0 18.8 v0.191v0.195c0 0 0 0 0 0c0.961 0.2 2 0.3 3 0.342v0.383c0.051 0 0.1 0 0.2 0 c0.034 0 0.1 0 0.1 0.002c0.039 0 0.077-0.003 0.116-0.003c0.002 0 0 0 0 0c0.001 0 0 0 0 0v-0.038 L3.344 19.86v-0.354c0.017 0 0 0 0.1 0.001c0.008 0 0.016-0.001 0.024-0.001c4.392-0.006 8.383-1.742 11.337-4.557 c0.035-0.033 0.23-0.218 0.279-0.266c2.914-2.909 4.742-6.9 4.836-11.311H20C20 3.3 20 3 20 2.998z"/><polygon fill="#FFFFFF" points="19.4,27.3 19.1,27.3 18.9,27.3 18.8,27.3 18.7,27.3 18.7,23.4 20.7,23.4 20.7,23.9 19.4,23.9 19.4,25 20.7,25 20.7,25.5 19.4,25.5 19.4,27.3"/><path fill="#FFFFFF" d="M21.139 25.545c0-0.453 0.076-0.797 0.229-1.028c0.146-0.231 0.461-0.349 0.934-0.349 c0.48 0 0.8 0.1 0.9 0.345c0.144 0.2 0.2 0.6 0.2 1.032v0.467c0 0.566-0.097 0.939-0.29 1.1 c-0.191 0.171-0.478 0.26-0.857 0.26c-0.469 0-0.775-0.117-0.93-0.356c-0.151-0.24-0.232-0.581-0.232-1.021V25.545L21.139 25.545z M22.743 25.462v-0.159c0-0.193-0.028-0.336-0.085-0.43c-0.045-0.101-0.167-0.15-0.365-0.15c-0.179 0-0.301 0.059-0.359 0.2 c-0.055 0.114-0.086 0.266-0.086 0.453v0.114V26.1v0.164c0 0.2 0 0.3 0.1 0.428c0.048 0.1 0.2 0.1 0.4 0.1 c0.209 0 0.34-0.062 0.386-0.193c0.047-0.125 0.067-0.311 0.067-0.549V25.462L22.743 25.462z"/><path fill="#FFFFFF" d="M24.428 24.23v1.983v0.075c0 0.1 0 0.2 0 0.332c0.026 0.1 0.1 0.2 0.1 0.2 c0.066 0 0.1 0.1 0.2 0.05c0.091 0 0.179-0.017 0.261-0.054c0.078-0.033 0.128-0.109 0.154-0.23 c0.024-0.119 0.038-0.244 0.038-0.371V24.23h0.687v3.107h-0.687v-0.109v-0.135c-0.064 0.098-0.161 0.168-0.286 0.2 c-0.127 0.052-0.256 0.077-0.398 0.077c-0.172 0-0.346-0.043-0.512-0.127c-0.155-0.087-0.26-0.205-0.312-0.357 c-0.018-0.066-0.03-0.15-0.042-0.24c-0.012-0.098-0.016-0.19-0.016-0.283v-2.15H24.428L24.428 24.23z"/><path fill="#FFFFFF" d="M27.49 27.338h-0.705V24.23h0.674l-0.014 0.286c0.029-0.112 0.08-0.189 0.139-0.231 c0.058-0.036 0.186-0.055 0.375-0.055h0.355v0.522H27.49V27.338L27.49 27.338z"/><path fill="#FFFFFF" d="M32.766 24.575H32.06c0-0.066-0.004-0.125-0.017-0.186c-0.014-0.058-0.037-0.116-0.068-0.179 c-0.05-0.113-0.133-0.198-0.252-0.252c-0.062-0.031-0.117-0.051-0.158-0.062c-0.043-0.015-0.09-0.019-0.14-0.019 c-0.074 0-0.151 0.019-0.229 0.058c-0.076 0.043-0.139 0.098-0.186 0.17c-0.043 0.07-0.062 0.151-0.062 0.2 c0 0.1 0 0.2 0.1 0.332c0.086 0.1 0.2 0.2 0.5 0.299l0.241 0.129c0.419 0.2 0.7 0.4 0.9 0.6 c0.151 0.2 0.2 0.4 0.2 0.697c0 0.158-0.055 0.326-0.155 0.5c-0.105 0.168-0.264 0.299-0.47 0.4 c-0.21 0.084-0.438 0.127-0.689 0.127c-0.147 0-0.294-0.013-0.437-0.043c-0.143-0.027-0.303-0.088-0.479-0.179 c-0.181-0.089-0.311-0.24-0.399-0.454c-0.092-0.211-0.134-0.438-0.134-0.682h0.705c0 0.1 0 0.1 0 0.2 c0.017 0.1 0 0.1 0.1 0.235c0.043 0.1 0.1 0.2 0.3 0.306c0.131 0.1 0.3 0.1 0.4 0.1 c0.113 0 0.219-0.021 0.307-0.066c0.094-0.042 0.16-0.104 0.205-0.18c0.052-0.079 0.076-0.165 0.076-0.251 c0-0.178-0.047-0.299-0.138-0.367c-0.093-0.066-0.271-0.172-0.53-0.318l-0.252-0.144c-0.398-0.218-0.662-0.403-0.799-0.554 c-0.132-0.152-0.201-0.373-0.201-0.668c0-0.162 0.055-0.328 0.156-0.486c0.104-0.16 0.262-0.285 0.467-0.373 c0.206-0.094 0.416-0.139 0.625-0.139c0.231 0 0.4 0 0.7 0.15c0.201 0.1 0.4 0.3 0.5 0.5 C32.711 24.2 32.8 24.4 32.8 24.575L32.766 24.575z"/><path fill="#FFFFFF" d="M33.555 23.656h0.705v0.574h0.537v0.522H34.26v1.675c0 0.2 0 0.4 0.1 0.5 c0.043 0.1 0.1 0.3 0.3 0.423h-0.763c-0.104-0.135-0.179-0.264-0.229-0.387c-0.016-0.05-0.029-0.113-0.043-0.184 c-0.012-0.072-0.016-0.15-0.016-0.232v-1.782h-0.398V24.23h0.398V23.656L33.555 23.656z"/><path fill="#FFFFFF" d="M37.567 27.338h-0.637l-0.042-0.135l-0.043-0.197c-0.1 0.139-0.197 0.235-0.285 0.3 c-0.092 0.059-0.219 0.089-0.387 0.089c-0.15 0-0.289-0.016-0.416-0.047c-0.121-0.033-0.23-0.097-0.322-0.193 c-0.093-0.096-0.16-0.197-0.197-0.311c-0.039-0.107-0.055-0.226-0.055-0.348c0-0.117 0.016-0.24 0.059-0.373 c0.037-0.135 0.131-0.248 0.27-0.337c0.066-0.047 0.141-0.089 0.226-0.132c0.089-0.039 0.187-0.082 0.294-0.124l0.524-0.218 c0.134-0.068 0.202-0.15 0.202-0.252c0-0.072-0.012-0.131-0.033-0.177c-0.025-0.047-0.072-0.089-0.143-0.125 c-0.072-0.038-0.15-0.062-0.244-0.062c-0.042 0-0.104 0.011-0.186 0.031c-0.078 0.02-0.15 0.066-0.209 0.1 c-0.059 0.074-0.093 0.186-0.093 0.327h-0.633c0.05-0.311 0.112-0.524 0.193-0.646c0.079-0.127 0.183-0.211 0.314-0.258 c0.058-0.02 0.112-0.037 0.163-0.044c0.051-0.015 0.113-0.026 0.189-0.039l0.345-0.021c0.13 0 0.3 0 0.4 0 c0.109 0 0.2 0.1 0.3 0.135c0.117 0.1 0.2 0.2 0.3 0.365c0.051 0.2 0.1 0.4 0.1 0.592v1.506 C37.467 27 37.5 27.2 37.6 27.338L37.567 27.338z M36.543 25.827c-0.275 0.159-0.453 0.274-0.523 0.3 c-0.076 0.074-0.115 0.162-0.115 0.264v0.046c0 0.1 0 0.2 0 0.206c0.029 0 0.1 0.1 0.1 0.1 c0.059 0 0.1 0 0.2 0.044c0.073 0 0.151-0.021 0.239-0.058c0.089-0.043 0.146-0.121 0.18-0.234 c0.031-0.119 0.043-0.248 0.043-0.391v-0.14v-0.34L36.543 25.827L36.543 25.827z"/><path fill="#FFFFFF" d="M38.575 27.338h-0.706V24.23h0.674l-0.015 0.286c0.03-0.112 0.081-0.189 0.14-0.231 c0.059-0.036 0.186-0.055 0.375-0.055h0.356v0.522h-0.824V27.338L38.575 27.338z"/><path fill="#FFFFFF" d="M43.992 24.642h-0.71c-0.026-0.237-0.05-0.403-0.075-0.493c-0.025-0.088-0.098-0.155-0.215-0.201 c-0.112-0.048-0.231-0.069-0.349-0.069c-0.147 0-0.268 0.026-0.364 0.076c-0.102 0.056-0.168 0.134-0.205 0.2 c-0.035 0.109-0.055 0.231-0.055 0.37v0.097v1.381c0 0.2 0 0.3 0 0.42c0.026 0.1 0.1 0.2 0.2 0.3 c0.121 0.1 0.3 0.1 0.4 0.096h0.108l0.123-0.025c0.188-0.062 0.293-0.164 0.322-0.293c0.027-0.135 0.038-0.244 0.038-0.336 v-0.252h0.71v0.168c0 0.131-0.008 0.25-0.025 0.359c-0.017 0.111-0.041 0.217-0.08 0.309c-0.062 0.172-0.186 0.307-0.356 0.4 c-0.173 0.094-0.328 0.151-0.462 0.182c-0.135 0.031-0.277 0.047-0.42 0.047c-0.28 0-0.521-0.043-0.71-0.131 c-0.194-0.087-0.345-0.214-0.457-0.377c-0.113-0.163-0.167-0.407-0.167-0.722v-1.521c0-0.28 0.02-0.5 0.07-0.667 c0.045-0.163 0.158-0.299 0.34-0.403c0.176-0.101 0.337-0.167 0.488-0.201c0.145-0.028 0.303-0.042 0.465-0.042 c0.102 0 0.2 0 0.3 0.014c0.086 0 0.2 0 0.3 0.055c0.186 0 0.3 0.1 0.5 0.3 c0.147 0.1 0.2 0.3 0.2 0.461l0.025 0.217V24.642L43.992 24.642z"/><path fill="#FFFFFF" d="M45.907 27.338v-1.91v-0.227c0-0.041 0-0.088-0.005-0.139c0-0.051-0.008-0.105-0.021-0.173 c-0.014-0.066-0.059-0.12-0.141-0.155c-0.094-0.032-0.17-0.051-0.229-0.051c-0.081 0-0.16 0.019-0.232 0.1 c-0.074 0.039-0.129 0.111-0.167 0.216c-0.021 0.101-0.034 0.218-0.034 0.353v0.101v1.931h-0.709v-3.972h0.709v1.116 c0.089-0.113 0.169-0.184 0.24-0.221c0.068-0.035 0.144-0.06 0.219-0.073l0.227-0.021h0.131c0.047 0 0.1 0 0.1 0 c0.051 0 0.1 0 0.2 0.075c0.119 0 0.2 0.1 0.3 0.264c0.05 0.1 0.1 0.3 0.1 0.488v0.143v2.17 L45.907 27.338L45.907 27.338z"/><path fill="#FFFFFF" d="M49.659 27.338h-0.637l-0.042-0.135l-0.043-0.197c-0.101 0.139-0.197 0.235-0.286 0.3 c-0.091 0.059-0.218 0.089-0.385 0.089c-0.151 0-0.29-0.016-0.417-0.047c-0.121-0.033-0.23-0.097-0.322-0.193 c-0.093-0.096-0.16-0.197-0.197-0.311c-0.039-0.107-0.055-0.226-0.055-0.348c0-0.117 0.016-0.24 0.059-0.373 c0.037-0.135 0.131-0.248 0.27-0.337c0.066-0.047 0.141-0.089 0.226-0.132c0.089-0.039 0.185-0.082 0.294-0.124l0.524-0.218 c0.135-0.068 0.202-0.15 0.202-0.252c0-0.072-0.013-0.131-0.033-0.177c-0.026-0.047-0.072-0.089-0.143-0.125 c-0.072-0.038-0.151-0.062-0.244-0.062c-0.042 0-0.105 0.011-0.186 0.031c-0.078 0.02-0.15 0.066-0.209 0.1 c-0.059 0.074-0.093 0.186-0.093 0.327h-0.634c0.051-0.311 0.113-0.524 0.194-0.646c0.078-0.127 0.183-0.211 0.313-0.258 c0.059-0.02 0.113-0.037 0.164-0.044c0.05-0.015 0.113-0.026 0.189-0.039l0.344-0.021c0.129 0 0.3 0 0.4 0 c0.109 0 0.2 0.1 0.3 0.135c0.116 0.1 0.2 0.2 0.3 0.365c0.049 0.2 0.1 0.4 0.1 0.592v1.506 C49.559 27 49.6 27.2 49.7 27.338L49.659 27.338z M48.635 25.827c-0.275 0.159-0.453 0.274-0.523 0.3 c-0.076 0.074-0.115 0.162-0.115 0.264v0.046c0 0.1 0 0.2 0 0.206c0.029 0 0.1 0.1 0.1 0.1 c0.059 0 0.1 0 0.2 0.044c0.071 0 0.151-0.021 0.239-0.058c0.09-0.043 0.146-0.121 0.18-0.234 c0.03-0.119 0.043-0.248 0.043-0.391v-0.14v-0.34L48.635 25.827L48.635 25.827z"/><path fill="#FFFFFF" d="M50.666 27.338h-0.705V24.23h0.674l-0.014 0.286c0.029-0.112 0.08-0.189 0.139-0.231 c0.059-0.036 0.185-0.055 0.375-0.055h0.355v0.522h-0.824V27.338L50.666 27.338z"/><path fill="#FFFFFF" d="M51.936 24.23h0.706v3.107h-0.706V24.23L51.936 24.23z M52.297 23.315c0.117 0 0.2 0 0.3 0.1 c0.082 0.1 0.1 0.1 0.1 0.244c0 0.102-0.039 0.186-0.113 0.252c-0.072 0.066-0.174 0.101-0.299 0.1 c-0.127 0-0.227-0.034-0.307-0.097c-0.084-0.066-0.122-0.147-0.122-0.248c0-0.092 0.038-0.175 0.122-0.243 C52.082 23.4 52.2 23.3 52.3 23.315L52.297 23.315z"/><path fill="#FFFFFF" d="M53.708 23.656h0.705v0.574h0.536v0.522h-0.536v1.675c0 0.2 0 0.4 0.1 0.5 c0.043 0.1 0.1 0.3 0.3 0.423h-0.762c-0.105-0.135-0.18-0.264-0.229-0.387c-0.017-0.05-0.03-0.113-0.042-0.184 c-0.012-0.072-0.017-0.15-0.017-0.232v-1.782h-0.399V24.23h0.399V23.656L53.708 23.656z"/><path fill="#FFFFFF" d="M55.961 24.23l0.479 1.965l0.483-1.965h0.695l-0.877 3.199c-0.096 0.354-0.243 0.567-0.441 0.7 c-0.197 0.082-0.508 0.121-0.931 0.121v-0.512h0.151l0.26-0.018c0.062 0 0.129-0.025 0.189-0.076 c0.062-0.05 0.098-0.125 0.098-0.229c0-0.058-0.015-0.119-0.031-0.182l-0.046-0.172l-0.743-2.785H55.961L55.961 24.23z"/><path fill="#FFFFFF" d="M36.674 3.687h-0.873c-0.029-0.308-0.062-0.519-0.092-0.634c-0.033-0.115-0.119-0.2-0.262-0.265 c-0.145-0.058-0.287-0.085-0.433-0.085c-0.18 0-0.333 0.031-0.454 0.1c-0.125 0.069-0.207 0.174-0.252 0.3 c-0.043 0.143-0.066 0.305-0.066 0.479v0.124v1.781c0 0.2 0 0.4 0 0.534c0.031 0.2 0.1 0.3 0.3 0.4 c0.15 0.1 0.3 0.1 0.5 0.127h0.139l0.149-0.033c0.233-0.082 0.365-0.209 0.396-0.378c0.031-0.172 0.049-0.317 0.049-0.433 V5.344h0.873V5.56c0 0.165-0.008 0.323-0.028 0.465C36.623 6.2 36.6 6.3 36.6 6.42c-0.084 0.226-0.23 0.395-0.441 0.5 c-0.217 0.122-0.404 0.199-0.576 0.237c-0.165 0.039-0.335 0.059-0.516 0.059c-0.349 0-0.64-0.059-0.875-0.17 c-0.238-0.112-0.426-0.275-0.562-0.488c-0.143-0.211-0.213-0.519-0.213-0.925V3.683c0-0.357 0.031-0.645 0.092-0.856 c0.059-0.212 0.201-0.387 0.416-0.519c0.222-0.134 0.421-0.222 0.603-0.258c0.18-0.042 0.375-0.06 0.579-0.06 c0.123 0 0.2 0 0.4 0.018c0.111 0 0.2 0 0.3 0.074c0.225 0.1 0.4 0.2 0.6 0.3 c0.183 0.2 0.3 0.4 0.3 0.585l0.028 0.287V3.687L36.674 3.687z"/><polygon fill="#FFFFFF" points="37.4,2 38.3,2 38.3,4.1 39.8,4.1 39.8,2 40.6,2 40.6,7.2 39.8,7.2 39.8,4.8 38.3,4.8 38.3,7.2 37.4,7.2 37.4,2"/><path fill="#FFFFFF" d="M42.182 2.05h1.404l1.09 5.11h-0.92l-0.291-1.271h-1.133L42.086 7.16h-0.903L42.182 2.05L42.182 2.05z M42.447 5.176h0.886l-0.472-2.35L42.447 5.176L42.447 5.176z"/><path fill="#FFFFFF" d="M46.493 5.084h-0.711V7.16h-0.874V2.05h1.036c0.476 0 0.9 0 1.2 0.1 c0.3 0.1 0.5 0.2 0.6 0.41c0.068 0.1 0.1 0.2 0.2 0.273c0.042 0.1 0.1 0.2 0.1 0.3 c0.022 0.1 0 0.2 0.1 0.239c0.01 0.1 0 0.2 0 0.256c0 0.157-0.021 0.315-0.064 0.5 c-0.039 0.146-0.1 0.267-0.166 0.354l-0.165 0.2c-0.026 0.033-0.071 0.079-0.142 0.127c0.184 0.2 0.3 0.3 0.4 0.5 C47.956 5.4 48 5.7 48 6v0.577c0 0.2 0 0.4 0.1 0.583h-0.963l-0.035-0.254c-0.018-0.107-0.022-0.199-0.022-0.279 L47.026 6.05c0-0.267-0.038-0.495-0.114-0.682C46.838 5.2 46.7 5.1 46.5 5.084L46.493 5.084z M45.782 4.324h0.728 c0.121 0 0.225-0.021 0.309-0.07c0.082-0.047 0.166-0.139 0.244-0.271c0.067-0.1 0.096-0.232 0.096-0.39 c0-0.218-0.041-0.383-0.132-0.505c-0.088-0.115-0.229-0.203-0.418-0.25c-0.077-0.016-0.173-0.031-0.276-0.043 c-0.104-0.014-0.204-0.023-0.296-0.023h-0.149h-0.104V4.324L45.782 4.324z"/><polygon fill="#FFFFFF" points="49.7,7.2 48.9,7.2 48.9,2 49.7,2 49.7,7.2"/><polygon fill="#FFFFFF" points="50.2,2.8 50.2,2.1 53.2,2.1 53.2,2.8 52.1,2.8 52.1,7.2 51.3,7.2 51.3,2.8 50.2,2.8"/><polygon fill="#FFFFFF" points="53.7,2 54.6,2 55.5,4.2 56.3,2 57.3,2 55.9,5.4 55.9,7.2 55,7.2 55,5.4 53.7,2"/><polygon fill="#FFFFFF" points="31.1,10.2 31.1,13.6 30.4,13.6 30.4,8.5 31.2,8.5 32.6,12 32.6,8.5 33.3,8.5 33.3,13.6 32.5,13.6 31.1,10.2"/><path fill="#FFFFFF" d="M34.542 8.538h1.222l0.948 5.11h-0.799l-0.253-1.274h-0.986l-0.216 1.274h-0.787L34.542 8.538L34.542 8.538z M34.773 11.664h0.77l-0.408-2.35L34.773 11.664L34.773 11.664z"/><polygon fill="#FFFFFF" points="36.7,8.5 37.5,8.5 38.3,12.5 39,8.5 39.8,8.5 38.8,13.6 37.7,13.6 36.7,8.5"/><polygon fill="#FFFFFF" points="41.1,13.6 40.3,13.6 40.3,8.5 41.1,8.5 41.1,13.6"/><path fill="#FFFFFF" d="M43.947 11.548h-0.711v-0.714h1.414v2.822l-0.587-0.482c-0.062 0.121-0.157 0.232-0.277 0.3 c-0.122 0.104-0.245 0.162-0.372 0.176l-0.257 0.028c-0.128 0-0.241-0.017-0.331-0.046c-0.092-0.023-0.234-0.09-0.426-0.195 c-0.191-0.104-0.337-0.273-0.429-0.508c-0.09-0.235-0.136-0.516-0.136-0.838v-1.961c0-0.356 0.023-0.641 0.074-0.852 c0.053-0.212 0.171-0.381 0.353-0.512c0.188-0.133 0.364-0.219 0.538-0.265c0.078-0.019 0.16-0.034 0.248-0.046 c0.088-0.014 0.17-0.022 0.25-0.022c0.199 0 0.4 0.1 0.7 0.157c0.285 0.1 0.5 0.3 0.5 0.6 c0.039 0.1 0.1 0.3 0.1 0.343c0.018 0.1 0 0.2 0 0.214l0.012 0.431h-0.762c0-0.223-0.02-0.41-0.058-0.564 c-0.038-0.152-0.122-0.262-0.245-0.318c-0.126-0.064-0.25-0.092-0.375-0.092c-0.158 0-0.286 0.031-0.395 0.1 c-0.105 0.066-0.18 0.176-0.221 0.321c-0.043 0.148-0.062 0.31-0.062 0.495v0.095v1.781c0 0.2 0 0.4 0 0.5 c0.027 0.1 0.1 0.3 0.2 0.345C43 13 43.1 13 43.3 13c0.092 0 0.208-0.03 0.346-0.084 c0.138-0.059 0.222-0.17 0.25-0.336c0.029-0.172 0.041-0.317 0.041-0.441v-0.321V11.548L43.947 11.548z"/><path fill="#FFFFFF" d="M46.02 8.538h1.223l0.947 5.11h-0.798l-0.254-1.274h-0.985l-0.217 1.274h-0.786L46.02 8.538L46.02 8.538z M46.252 11.664h0.77l-0.408-2.35L46.252 11.664L46.252 11.664z"/><polygon fill="#FFFFFF" points="48.1,9.3 48.1,8.6 50.8,8.6 50.8,9.3 49.9,9.3 49.9,13.7 49.1,13.7 49.1,9.3 48.1,9.3"/><path fill="#FFFFFF" d="M53.691 11.906c0 0.564-0.1 1.005-0.291 1.326c-0.19 0.319-0.573 0.481-1.143 0.5 c-0.578 0-0.967-0.162-1.158-0.485c-0.189-0.325-0.28-0.767-0.28-1.322v-1.636c0-0.719 0.123-1.202 0.377-1.439 c0.253-0.239 0.606-0.361 1.062-0.361c0.565 0 0.9 0.2 1.1 0.472c0.195 0.3 0.3 0.8 0.3 1.329V11.906L53.691 11.906z M52.931 10.043c0-0.291-0.046-0.508-0.142-0.649c-0.092-0.138-0.27-0.207-0.537-0.207c-0.266 0-0.443 0.065-0.535 0.2 c-0.096 0.136-0.141 0.354-0.141 0.649v2.088c0 0.3 0 0.5 0.1 0.648c0.09 0.1 0.3 0.2 0.5 0.2 c0.256 0 0.43-0.076 0.529-0.218c0.1-0.146 0.149-0.357 0.149-0.639V10.043L52.931 10.043z"/><path fill="#FFFFFF" d="M55.714 11.572h-0.622v2.076h-0.756v-5.11h0.902c0.408 0 0.7 0 1 0.1 c0.264 0.1 0.4 0.2 0.6 0.412c0.058 0.1 0.1 0.2 0.1 0.273c0.036 0.1 0.1 0.2 0.1 0.3 c0.021 0.1 0 0.2 0 0.239c0.009 0.1 0 0.2 0 0.253c0 0.16-0.016 0.318-0.053 0.5 c-0.038 0.146-0.088 0.266-0.146 0.354l-0.142 0.199c-0.024 0.034-0.065 0.078-0.123 0.13c0.157 0.2 0.3 0.3 0.3 0.5 c0.054 0.2 0.1 0.4 0.1 0.748v0.576c0 0.2 0 0.4 0.1 0.584H56.25c-0.01-0.062-0.021-0.146-0.033-0.254 s-0.016-0.199-0.016-0.279l-0.022-0.577c0-0.267-0.034-0.495-0.1-0.683C56.018 11.7 55.9 11.6 55.7 11.572L55.714 11.572z M55.092 10.812h0.639c0.104 0 0.19-0.021 0.265-0.07c0.075-0.046 0.146-0.138 0.218-0.271c0.054-0.101 0.082-0.232 0.082-0.393 c0-0.215-0.036-0.381-0.116-0.502c-0.078-0.117-0.2-0.203-0.365-0.25c-0.067-0.017-0.146-0.031-0.237-0.043 c-0.092-0.016-0.18-0.023-0.262-0.023h-0.13h-0.093V10.812L55.092 10.812z"/></svg>