<svg xmlns="http://www.w3.org/2000/svg" viewBox="-266 409.5 79 26">
<path fill="#020000" d="M-252.046,434.5L-252.046,434.5c-2.153,0-4.259-0.74-5.927-2.082c-1.588-1.279-2.721-3.052-3.204-5.009 c-0.888-0.06-4.095-0.507-4.817-3.942l-0.006-0.059V409.5h75.062c1.618,0,2.938,1.328,2.938,2.959v18.991 c0,1.633-1.319,2.96-2.938,2.96L-252.046,434.5z"/>
<path fill="#FFFFFF" d="M-190.938,434.134c1.472,0,2.664-1.201,2.664-2.684v-18.991c0-1.482-1.192-2.684-2.664-2.684h-74.787 v13.633c0.795,3.787,4.768,3.733,4.768,3.733c0.9,4.051,4.549,7.082,8.911,7.082L-190.938,434.134z"/>
<path fill="#020000" d="M-246.723,424.767h1.869c-0.016-3.894-3.217-7.05-7.15-7.05c-3.938,0-7.141,3.164-7.158,7.072 c0,0.007,0,0.015,0,0.026c0,3.885,3.205,7.072,7.197,7.072c1.932,0,3.691-0.766,4.979-2.004l-1.348-1.276 c-0.952,0.894-2.225,1.433-3.63,1.433c-2.918,0-5.291-2.345-5.291-5.225c0-0.008,0-0.021,0-0.027 c0.021-2.87,2.382-5.199,5.291-5.199c2.862,0,5.194,2.286,5.194,5.178H-246.723L-246.723,424.767z"/>
<path fill="#020000" d="M-255.027,424.767h6.041c-0.014-1.637-1.363-2.967-3.019-2.967c-1.664,0-3.009,1.373-3.056,2.967H-255.027z"/>
<polygon fill="#020000" points="-234.169,416.572 -234.169,422.183 -235.619,422.183 -235.619,416.572 -237.717,416.572 -237.717,415.145 -232.064,415.145 -232.064,416.572"/>
<path fill="#020000" d="M-227.146,422.16l-1.467-2.245h-1.18v2.241h-1.503v-7.008h3.125c1.608,0,2.604,0.9,2.604,2.312v0.021 c0,1.131-0.592,1.838-1.459,2.174l1.668,2.502L-227.146,422.16L-227.146,422.16z M-227.121,417.543 c0-0.657-0.445-0.998-1.177-0.998h-1.495v2.008h1.525c0.727,0,1.146-0.394,1.146-0.986L-227.121,417.543L-227.121,417.543z"/>
<path fill="#020000" d="M-221.587,422.271c-1.838,0-2.959-1.055-2.959-3.112v-4.011h1.504v3.965c0,1.119,0.578,1.718,1.442,1.718 c0.918,0,1.477-0.571,1.477-1.687v-3.996h1.496v3.959c0.03,2.104-1.138,3.152-2.95,3.152"/>
<path fill="#020000" d="M-214.819,422.26c-1.042,0-2.085-0.369-2.902-1.119l0.892-1.095c0.611,0.528,1.229,0.823,2.029,0.823 c0.604,0,0.983-0.246,0.983-0.657v-0.021c0-0.392-0.232-0.59-1.374-0.891c-1.38-0.361-2.268-0.753-2.268-2.146v0.005 c0-1.269,0.99-2.112,2.38-2.112c1.002,0,1.815,0.295,2.542,0.889l-0.778,1.17c-0.61-0.429-1.204-0.691-1.773-0.691 c-0.576,0-0.883,0.273-0.883,0.607v0.021c0,0.45,0.297,0.598,1.446,0.917c1.396,0.379,2.174,0.903,2.174,2.104v0.021 c0.035,1.421-1.037,2.174-2.479,2.174"/>
<polygon fill="#020000" points="-208.528,416.572 -208.528,422.183 -209.985,422.183 -209.985,416.572 -212.076,416.572 -212.076,415.145 -206.428,415.145 -206.428,416.572 		"/>
<path fill="#020000" d="M-201.733,420.009h-3.639c0.141,0.675,0.572,1.048,1.303,1.048c0.493,0,0.856-0.158,1.267-0.549 l0.85,0.748c-0.491,0.619-1.195,1.005-2.136,1.005c-1.576,0-2.734-1.13-2.734-2.774l0,0c0-1.529,1.06-2.788,2.585-2.788 c1.742,0,2.53,1.415,2.53,2.911v0.017c-0.006,0.158-0.012,0.235-0.012,0.384 M-204.26,417.912c-0.611,0-1.018,0.456-1.135,1.123 h2.232C-203.254,418.368-203.605,417.917-204.26,417.912"/>
<path fill="#020000" d="M-195.815,417.922l-3.016-1.931c-0.127-0.081-0.287-0.089-0.42-0.015c-0.131,0.073-0.212,0.213-0.212,0.363 v4.001c0,0.154,0.083,0.294,0.219,0.366c0.062,0.033,0.126,0.048,0.191,0.048c0.082,0,0.163-0.024,0.232-0.071l3.015-2.069 c0.114-0.079,0.182-0.21,0.181-0.349C-195.628,418.126-195.699,417.997-195.815,417.922z"/>
<path d="M-237.262,424.902c0.285-0.293,0.648-0.439,1.089-0.439c0.589,0,1.021,0.196,1.293,0.59 c0.149,0.222,0.231,0.442,0.241,0.665h-0.739c-0.047-0.171-0.106-0.3-0.181-0.387c-0.133-0.155-0.327-0.233-0.586-0.233 c-0.265,0-0.472,0.11-0.625,0.329c-0.151,0.218-0.229,0.527-0.229,0.928c0,0.399,0.08,0.7,0.241,0.898 c0.159,0.199,0.364,0.299,0.612,0.299c0.254,0,0.447-0.085,0.582-0.257c0.072-0.092,0.133-0.229,0.183-0.413h0.735 c-0.064,0.391-0.227,0.705-0.486,0.949c-0.262,0.242-0.596,0.364-1.002,0.364c-0.504,0-0.9-0.163-1.189-0.493 c-0.287-0.331-0.432-0.784-0.432-1.359C-237.754,425.72-237.591,425.24-237.262,424.902z"/>
<path d="M-231.902,425.513c0.182,0.083,0.332,0.212,0.452,0.392c0.106,0.155,0.177,0.338,0.208,0.545 c0.02,0.121,0.026,0.296,0.021,0.522h-1.907c0.011,0.266,0.103,0.45,0.274,0.558c0.104,0.064,0.229,0.099,0.377,0.099 c0.156,0,0.283-0.04,0.381-0.121c0.053-0.044,0.1-0.104,0.141-0.182h0.699c-0.018,0.156-0.104,0.315-0.253,0.477 c-0.234,0.257-0.563,0.386-0.986,0.386c-0.349,0-0.655-0.108-0.922-0.324s-0.399-0.567-0.399-1.057 c0-0.457,0.121-0.808,0.359-1.052c0.24-0.243,0.555-0.365,0.938-0.365C-232.291,425.389-232.085,425.43-231.902,425.513z M-232.927,426.108c-0.097,0.101-0.158,0.234-0.183,0.407h1.18c-0.012-0.183-0.073-0.321-0.182-0.417 c-0.109-0.096-0.246-0.143-0.406-0.143C-232.693,425.957-232.831,426.007-232.927,426.108z"/>
<path d="M-228.925,425.397c0.009,0,0.028,0.001,0.059,0.002v0.709c-0.043-0.005-0.082-0.01-0.114-0.011 c-0.035-0.002-0.062-0.003-0.082-0.003c-0.275,0-0.461,0.09-0.556,0.271c-0.053,0.102-0.079,0.259-0.079,0.47v1.261h-0.689v-2.638 h0.652v0.459c0.105-0.176,0.198-0.296,0.277-0.359c0.127-0.107,0.294-0.161,0.5-0.161 C-228.945,425.396-228.934,425.396-228.925,425.397z"/>
<path d="M-228.242,425.975v-0.49h0.366v-0.736h0.677v0.736h0.426v0.49h-0.426v1.395c0,0.107,0.014,0.175,0.042,0.202 c0.027,0.025,0.11,0.04,0.25,0.04c0.021,0,0.043-0.001,0.066-0.002c0.022-0.001,0.046-0.001,0.068-0.003v0.515l-0.323,0.013 c-0.325,0.011-0.545-0.045-0.664-0.169c-0.077-0.078-0.115-0.2-0.115-0.366v-1.623L-228.242,425.975L-228.242,425.975z"/>
<path d="M-225.137,425.144h-0.694v-0.636h0.694V425.144z M-225.831,425.459h0.694v2.638h-0.694V425.459z"/>
<path d="M-222.897,424.498c0.035,0.002,0.082,0.005,0.146,0.01v0.562c-0.038-0.005-0.104-0.008-0.193-0.012 c-0.091-0.002-0.152,0.019-0.188,0.062c-0.034,0.043-0.052,0.09-0.052,0.142c0,0.053,0,0.126,0,0.224h0.449v0.485h-0.449v2.127 h-0.681v-2.127h-0.385v-0.485h0.376v-0.169c0-0.282,0.047-0.479,0.141-0.584c0.101-0.157,0.341-0.238,0.72-0.238 C-222.973,424.492-222.933,424.494-222.897,424.498z"/>
<path d="M-221.146,425.144h-0.692v-0.636h0.692V425.144z M-221.84,425.459h0.692v2.638h-0.692V425.459z"/>
<path d="M-218.284,425.513c0.184,0.083,0.334,0.212,0.452,0.392c0.108,0.155,0.177,0.338,0.211,0.545 c0.019,0.121,0.024,0.296,0.021,0.522h-1.909c0.011,0.266,0.104,0.45,0.274,0.558c0.104,0.064,0.229,0.099,0.376,0.099 c0.157,0,0.283-0.04,0.383-0.121c0.053-0.044,0.101-0.104,0.142-0.182h0.698c-0.02,0.156-0.104,0.315-0.253,0.477 c-0.235,0.257-0.563,0.386-0.986,0.386c-0.349,0-0.657-0.108-0.923-0.324c-0.267-0.216-0.398-0.567-0.398-1.057 c0-0.457,0.118-0.808,0.359-1.052c0.241-0.243,0.554-0.365,0.938-0.365C-218.672,425.389-218.467,425.43-218.284,425.513z M-219.309,426.108c-0.098,0.101-0.158,0.234-0.184,0.407h1.182c-0.014-0.183-0.073-0.321-0.184-0.417 c-0.109-0.096-0.245-0.143-0.406-0.143C-219.075,425.957-219.213,426.007-219.309,426.108z"/>
<path d="M-215.371,425.502c0.123,0.07,0.223,0.167,0.3,0.291v-1.259h0.694v3.562h-0.665v-0.365 c-0.098,0.156-0.21,0.271-0.334,0.342c-0.127,0.07-0.281,0.106-0.467,0.106c-0.308,0-0.563-0.126-0.772-0.375 s-0.312-0.567-0.312-0.959c0-0.45,0.104-0.805,0.309-1.062s0.48-0.387,0.826-0.387 C-215.636,425.396-215.495,425.431-215.371,425.502z M-215.204,427.38c0.103-0.145,0.152-0.333,0.152-0.562 c0-0.322-0.081-0.554-0.243-0.691c-0.1-0.084-0.215-0.127-0.346-0.127c-0.201,0-0.35,0.076-0.441,0.229 c-0.094,0.152-0.141,0.343-0.141,0.567c0,0.243,0.048,0.438,0.144,0.584c0.095,0.146,0.239,0.219,0.435,0.219 C-215.45,427.598-215.305,427.525-215.204,427.38z"/>
<path d="M-208.97,426.553c-0.207,0.174-0.503,0.262-0.888,0.262h-0.738v1.282h-0.735v-3.565h1.521c0.351,0,0.631,0.091,0.838,0.274 c0.21,0.185,0.312,0.469,0.312,0.854C-208.658,426.08-208.761,426.379-208.97,426.553z M-209.534,425.268 c-0.094-0.077-0.225-0.118-0.395-0.118h-0.667v1.052h0.667c0.17,0,0.301-0.044,0.395-0.129c0.093-0.085,0.142-0.222,0.142-0.407 C-209.394,425.479-209.441,425.347-209.534,425.268z"/>
<path d="M-206.173,425.397c0.01,0,0.028,0.001,0.059,0.002v0.709c-0.042-0.005-0.081-0.01-0.114-0.011 c-0.033-0.002-0.061-0.003-0.081-0.003c-0.275,0-0.46,0.09-0.557,0.271c-0.052,0.102-0.078,0.259-0.078,0.47v1.261h-0.689v-2.638 h0.652v0.459c0.105-0.176,0.197-0.296,0.276-0.359c0.128-0.107,0.294-0.161,0.499-0.161 C-206.192,425.396-206.181,425.396-206.173,425.397z"/>
<path d="M-204.516,425.144h-0.695v-0.636h0.695V425.144z M-205.211,425.459h0.695v2.638h-0.695V425.459z"/>
<path d="M-201.747,425.459h0.736l-0.946,2.638h-0.722l-0.941-2.638h0.771l0.545,1.945L-201.747,425.459z"/>
<path d="M-199.094,426.493c0.128-0.019,0.219-0.038,0.273-0.062c0.1-0.042,0.147-0.106,0.147-0.194 c0-0.107-0.038-0.184-0.113-0.226c-0.075-0.041-0.187-0.062-0.333-0.062c-0.163,0-0.28,0.042-0.349,0.122 c-0.049,0.06-0.08,0.14-0.098,0.243h-0.66c0.015-0.232,0.077-0.422,0.191-0.57c0.183-0.231,0.495-0.348,0.938-0.348 c0.288,0,0.544,0.058,0.768,0.172c0.224,0.113,0.334,0.33,0.334,0.647v1.21c0,0.083,0.002,0.187,0.005,0.305 c0.005,0.091,0.021,0.15,0.042,0.185c0.022,0.032,0.057,0.059,0.102,0.079v0.103h-0.745c-0.021-0.054-0.035-0.103-0.042-0.149 c-0.009-0.046-0.016-0.101-0.021-0.16c-0.096,0.104-0.205,0.19-0.329,0.265c-0.146,0.085-0.314,0.129-0.503,0.129 c-0.238,0-0.436-0.067-0.591-0.206c-0.155-0.136-0.232-0.327-0.232-0.578c0-0.325,0.124-0.56,0.375-0.703 c0.138-0.081,0.339-0.137,0.604-0.17L-199.094,426.493z M-198.675,426.812c-0.043,0.028-0.088,0.051-0.133,0.067 s-0.105,0.032-0.185,0.047l-0.156,0.03c-0.146,0.023-0.252,0.056-0.313,0.093c-0.108,0.063-0.162,0.16-0.162,0.293 c0,0.117,0.033,0.202,0.099,0.256c0.067,0.054,0.146,0.077,0.24,0.077c0.15,0,0.289-0.042,0.414-0.13 c0.126-0.087,0.191-0.245,0.196-0.478V426.812L-198.675,426.812z"/>
<path d="M-195.334,426.405c-0.013-0.1-0.045-0.188-0.099-0.268c-0.077-0.105-0.196-0.159-0.359-0.159 c-0.231,0-0.39,0.115-0.475,0.347c-0.047,0.122-0.067,0.283-0.067,0.487c0,0.192,0.021,0.35,0.067,0.466 c0.082,0.221,0.235,0.329,0.463,0.329c0.16,0,0.273-0.043,0.342-0.132c0.067-0.087,0.108-0.199,0.123-0.338h0.699 c-0.018,0.209-0.092,0.407-0.227,0.597c-0.215,0.301-0.534,0.45-0.955,0.45c-0.423,0-0.731-0.125-0.931-0.377 c-0.2-0.251-0.299-0.576-0.299-0.979c0-0.452,0.108-0.805,0.33-1.056c0.22-0.253,0.521-0.379,0.908-0.379 c0.329,0,0.599,0.073,0.807,0.223c0.21,0.148,0.334,0.412,0.372,0.787L-195.334,426.405L-195.334,426.405z"/>
<path d="M-193.568,428.602l0.087,0.006c0.066,0.003,0.133,0.002,0.191-0.008c0.062-0.008,0.112-0.026,0.154-0.056 c0.041-0.027,0.077-0.085,0.11-0.171c0.034-0.087,0.05-0.141,0.044-0.161l-0.961-2.753h0.763l0.571,1.945l0.54-1.945h0.729 l-0.899,2.594c-0.173,0.501-0.311,0.812-0.411,0.932c-0.1,0.119-0.302,0.181-0.605,0.181c-0.062,0-0.108-0.001-0.146-0.002 c-0.036,0-0.092-0.003-0.166-0.008L-193.568,428.602L-193.568,428.602z"/>
<path fill="#8CC63E" d="M-240.357,422.182l-0.019-10.244h-23.281v10.244c0,1.421,1.106,2.571,2.498,2.652 c0.313-4.818,4.286-8.632,9.152-8.632s8.838,3.813,9.151,8.632C-241.464,424.753-240.357,423.604-240.357,422.182z"/>
</svg>
