<svg xmlns="http://www.w3.org/2000/svg" viewBox="0 0 80 30"><path fill="#005D87" d="M75.392 0.006L4.77 0C2.14 0 0 2 0 4.48v21.038C0 28 2.1 30 4.8 30l70.622-0.007 c2.546 0 4.608-1.933 4.608-4.318V4.323C80 1.9 77.9 0 75.4 0.006z"/><path fill="#FFFFFF" d="M1.164 4.48v21.039c0 1.9 1.7 3.5 3.8 3.533h22.14V0.948H4.975C2.874 0.9 1.2 2.5 1.2 4.48z"/><path fill="#FFFFFF" d="M33.763 9.044h1.025l2.168 5.04h-1.163l-0.462-1.123h-2.14l-0.462 1.123h-1.135L33.763 9.044z M34.934 12 l-0.673-1.623l-0.672 1.623H34.934z"/><path fill="#FFFFFF" d="M36.773 11.596v-0.014c0-1.422 1.085-2.588 2.638-2.588c0.955 0 1.5 0.3 2 0.772l-0.708 0.8 c-0.391-0.351-0.788-0.565-1.294-0.565c-0.853 0-1.467 0.701-1.467 1.559v0.014c0 0.9 0.6 1.6 1.5 1.6 c0.578 0 0.933-0.229 1.33-0.587l0.708 0.708c-0.521 0.55-1.099 0.894-2.074 0.894C37.88 14.2 36.8 13 36.8 11.596z"/><path fill="#FFFFFF" d="M41.549 11.596v-0.014c0-1.422 1.084-2.588 2.638-2.588c0.953 0 1.5 0.3 2 0.772l-0.707 0.8 c-0.391-0.351-0.789-0.565-1.295-0.565c-0.853 0-1.466 0.701-1.466 1.559v0.014c0 0.9 0.6 1.6 1.5 1.6 c0.579 0 0.933-0.229 1.33-0.587l0.709 0.708c-0.521 0.55-1.1 0.894-2.074 0.894C42.655 14.2 41.5 13 41.5 11.596z"/><path fill="#FFFFFF" d="M46.691 9.08h2.313c0.643 0 1.1 0.2 1.5 0.508c0.281 0.3 0.4 0.7 0.4 1.144v0.015 c0 0.808-0.44 1.314-1.084 1.551l1.235 1.787h-1.301l-1.084-1.602h-0.874v1.602h-1.113V9.08z M48.933 11.5 c0.541 0 0.853-0.286 0.853-0.708v-0.014c0-0.472-0.333-0.715-0.875-0.715h-1.105v1.437H48.933z"/><path fill="#FFFFFF" d="M51.503 9.08h3.814v0.979h-2.71v1.015h2.385v0.98h-2.385v1.051h2.746v0.979h-3.851V9.08z"/><path fill="#FFFFFF" d="M55.93 9.08h1.973c1.59 0 2.7 1.1 2.7 2.488v0.014c0 1.408-1.1 2.502-2.689 2.502H55.93V9.08z M57.902 13.091c0.911 0 1.525-0.608 1.525-1.495v-0.014c0-0.886-0.614-1.508-1.525-1.508h-0.859v3.017H57.902z"/><path fill="#FFFFFF" d="M61.218 9.08h1.113v5.005h-1.113V9.08z"/><path fill="#FFFFFF" d="M64.36 10.095h-1.54V9.08h4.192v1.015h-1.539v3.99H64.36V10.095z"/><path fill="#FFFFFF" d="M67.451 9.08h3.815v0.979h-2.71v1.015h2.385v0.98h-2.385v1.051h2.746v0.979h-3.852V9.08z"/><path fill="#FFFFFF" d="M71.879 9.08h1.973c1.591 0 2.7 1.1 2.7 2.488v0.014c0 1.408-1.098 2.502-2.688 2.502h-1.973V9.08z M73.852 13.091c0.911 0 1.525-0.608 1.525-1.495v-0.014c0-0.886-0.614-1.508-1.525-1.508h-0.859v3.017H73.852z"/><path fill="#FFFFFF" d="M31.804 19.694v-0.014c0-1.423 1.084-2.588 2.638-2.588c0.954 0 1.5 0.3 2 0.771l-0.709 0.8 c-0.39-0.351-0.787-0.565-1.293-0.565c-0.853 0-1.467 0.701-1.467 1.559v0.015c0 0.9 0.6 1.6 1.5 1.6 c0.578 0 0.932-0.229 1.329-0.586l0.709 0.708c-0.521 0.551-1.099 0.894-2.074 0.894C32.91 22.3 31.8 21.1 31.8 19.694z"/><path fill="#FFFFFF" d="M36.947 17.179h1.113v1.98h2.052v-1.98h1.113v5.004h-1.113v-2.01h-2.052v2.01h-1.113V17.179z"/><path fill="#FFFFFF" d="M43.76 17.143h1.026l2.168 5.04h-1.163l-0.463-1.122h-2.139l-0.463 1.122h-1.135L43.76 17.143z M44.931 20.088l-0.672-1.623l-0.673 1.623H44.931z"/><path fill="#FFFFFF" d="M47.32 17.179h2.312c0.643 0 1.1 0.2 1.5 0.508c0.281 0.3 0.4 0.7 0.4 1.143v0.015 c0 0.809-0.441 1.316-1.084 1.552l1.235 1.787h-1.301l-1.085-1.601h-0.874v1.601H47.32V17.179z M49.561 19.6 c0.542 0 0.853-0.286 0.853-0.708v-0.015c0-0.472-0.332-0.715-0.874-0.715h-1.106v1.438H49.561z"/><path fill="#FFFFFF" d="M52.182 17.179h1.112v5.004h-1.112V17.179z"/><path fill="#FFFFFF" d="M55.323 18.193h-1.539v-1.015h4.191v1.015h-1.539v3.989h-1.113V18.193z"/><path fill="#FFFFFF" d="M59.839 20.209l-1.944-3.03h1.301l1.206 2.008l1.229-2.008h1.265l-1.944 3.009v1.995h-1.112V20.209z"/><polygon fill="#005D87" points="18.5,18.1 8.7,18.1 8.3,19.3 10.9,19.3 11.4,20.9 15.8,20.9 16.3,19.3 18.9,19.3"/><path fill="#005D87" d="M10.288 11.548c-0.366 0.5-0.513 1.108-0.416 1.716c0.099 0.6 0.4 1.1 0.9 1.503l2.36 1.7 c0.126 0.1 0.2 0.2 0.2 0.377c0.025 0.151-0.012 0.304-0.104 0.431l0.356 0.254l1.246-1.702 c0.291-0.397 0.444-0.867 0.444-1.349c0-0.123-0.01-0.245-0.03-0.368c-0.098-0.608-0.429-1.142-0.934-1.503l-2.358-1.697 c-0.126-0.09-0.21-0.225-0.234-0.376c-0.004-0.031-0.007-0.062-0.007-0.092c0-0.121 0.038-0.238 0.111-0.336v-0.002l-0.354-0.254 C11.535 9.8 10.3 11.5 10.3 11.5"/><path fill="#005D87" d="M11.71 4.731c-0.424 0.576-0.646 1.256-0.646 1.956c0 0.2 0 0.4 0 0.5 c0.143 0.9 0.6 1.7 1.4 2.182l2.966 2.124c0.392 0.3 0.7 0.7 0.7 1.169c0.016 0.1 0 0.2 0 0.3 c0 0.376-0.118 0.74-0.345 1.049l0 0l0.283 0.204l2.337-3.195c0.531-0.723 0.744-1.606 0.603-2.488 c-0.143-0.883-0.623-1.657-1.354-2.182l-3.581-2.573c-0.226-0.163-0.374-0.402-0.417-0.674c-0.045-0.271 0.021-0.544 0.185-0.768 l-0.283-0.204L11.71 4.731z"/><path fill="#005D87" d="M5.65 21.847h2.701c0.665 0 1.2 0.2 1.5 0.508c0.266 0.3 0.4 0.6 0.4 0.979v0.018 c0 0.65-0.35 1.012-0.765 1.241c0.674 0.3 1.1 0.6 1.1 1.414v0.017c0 1.054-0.865 1.58-2.178 1.58H5.65V21.847z M8.078 24.173c0.565 0 0.923-0.181 0.923-0.608v-0.016c0-0.38-0.299-0.593-0.84-0.593H6.897v1.217H8.078z M8.419 26.5 c0.565 0 0.905-0.197 0.905-0.624v-0.017c0-0.387-0.29-0.625-0.946-0.625h-1.48v1.266H8.419z"/><path fill="#005D87" d="M11.153 21.847h2.701c0.666 0 1.2 0.2 1.5 0.508c0.266 0.3 0.4 0.6 0.4 0.979v0.018 c0 0.65-0.349 1.012-0.765 1.241c0.673 0.3 1.1 0.6 1.1 1.414v0.017c0 1.054-0.864 1.58-2.178 1.58h-2.768V21.847z M13.58 24.173c0.565 0 0.923-0.181 0.923-0.608v-0.016c0-0.38-0.299-0.593-0.84-0.593H12.4v1.217H13.58z M13.921 26.5 c0.565 0 0.906-0.197 0.906-0.624v-0.017c0-0.387-0.291-0.625-0.948-0.625H12.4v1.266H13.921z"/><path fill="#005D87" d="M16.656 21.847h2.701c0.665 0 1.2 0.2 1.5 0.508c0.266 0.3 0.4 0.6 0.4 0.979v0.018 c0 0.65-0.35 1.012-0.765 1.241c0.673 0.3 1.1 0.6 1.1 1.414v0.017c0 1.054-0.864 1.58-2.178 1.58h-2.768V21.847z M19.082 24.173c0.566 0 0.923-0.181 0.923-0.608v-0.016c0-0.38-0.299-0.593-0.84-0.593h-1.263v1.217H19.082z M19.424 26.5 c0.564 0 0.906-0.197 0.906-0.624v-0.017c0-0.387-0.292-0.625-0.948-0.625h-1.479v1.266H19.424z"/><path fill="#005D87" d="M21.885 26.484v-0.006c0-0.632 0.519-1.16 1.176-1.16s1.169 0.5 1.2 1.153v0.007 c0 0.631-0.519 1.159-1.176 1.159S21.885 27.1 21.9 26.484z M24.123 26.479v-0.007c0-0.58-0.457-1.054-1.062-1.054 c-0.609 0-1.069 0.48-1.069 1.061v0.006c0 0.6 0.5 1.1 1.1 1.054C23.662 27.5 24.1 27.1 24.1 26.479z M22.598 25.851h0.537c0.152 0 0.3 0 0.4 0.125c0.059 0.1 0.1 0.1 0.1 0.229v0.007c0 0.192-0.129 0.308-0.311 0.3 l0.372 0.478h-0.22l-0.347-0.449h-0.308v0.449h-0.178V25.851z M23.119 26.434c0.168 0 0.284-0.076 0.284-0.211v-0.007 c0-0.124-0.104-0.205-0.275-0.205h-0.353v0.423H23.119z"/></svg>