<svg xmlns="http://www.w3.org/2000/svg" viewBox="0 0 100 27"><path fill-rule="evenodd" clip-rule="evenodd" fill="#8CC63E" d="M27.919 24.386c0 1.443-1.18 2.614-2.634 2.614H2.634 C1.18 27 0 25.8 0 24.386V2.614C0 1.2 1.2 0 2.6 0h22.651c1.454 0 2.6 1.2 2.6 2.614V24.386z"/><path d="M13.959 4.47c5.079 0 9.2 4.1 9.2 9.131h2.181C25.353 7.4 20.2 2.3 14 2.307S2.566 7.4 2.5 13.602H4.73 C4.746 8.6 8.9 4.5 14 4.47z"/><path fill="#FFFFFF" d="M19.25 13.602h1.87c-0.016-3.905-3.222-7.078-7.16-7.078c-3.939 0-7.145 3.173-7.16 7.1 c0 0.01-0.001 0.02-0.001 0.029c0 3.9 3.2 7.1 7.2 7.106c1.938 0 3.699-0.77 4.99-2.018l-1.355-1.282 c-0.949 0.893-2.227 1.445-3.635 1.445c-2.918 0-5.292-2.356-5.292-5.252c0-0.01 0.002-0.02 0.002-0.029 c0.016-2.883 2.381-5.223 5.29-5.223C16.868 8.4 19.2 10.7 19.2 13.602z"/><path fill="#FFFFFF" d="M10.935 13.602h6.051c-0.016-1.646-1.363-2.976-3.025-2.976S10.949 12 10.9 13.602z"/><polygon fill="#020000" points="34.6,6 34.6,13.5 32.6,13.5 32.6,6 29.7,6 29.7,4.1 37.5,4.1 37.5,6"/><path fill="#020000" d="M44.293 13.469l-2.021-2.996h-1.631v2.996h-2.076v-9.36h4.313c2.225 0 3.6 1.2 3.6 3.089v0.027 c0 1.511-0.82 2.459-2.02 2.901l2.304 3.343H44.293z M44.333 7.304c0-0.883-0.62-1.337-1.631-1.337h-2.062v2.687h2.104 c1.01 0 1.589-0.533 1.589-1.323V7.304z"/><path fill="#020000" d="M51.973 13.617c-2.533 0-4.082-1.406-4.082-4.16V4.108h2.074v5.295c0 1.5 0.8 2.3 2 2.3 c1.265 0 2.034-0.762 2.034-2.247V4.108h2.072V9.39C56.108 12.2 54.5 13.6 52 13.6"/><path fill="#020000" d="M61.311 13.602c-1.429 0-2.871-0.494-4.001-1.497l1.225-1.458c0.849 0.7 1.7 1.1 2.8 1.1 c0.849 0 1.359-0.335 1.359-0.884v-0.026c0-0.521-0.323-0.789-1.897-1.189c-1.902-0.481-3.127-1.004-3.127-2.861V6.796 c0-1.698 1.373-2.822 3.3-2.822c1.374 0 2.5 0.4 3.5 1.191l-1.077 1.552c-0.836-0.576-1.657-0.923-2.454-0.923 c-0.793 0-1.213 0.36-1.213 0.815v0.027c0 0.6 0.4 0.8 2 1.229c1.913 0.5 3 1.2 3 2.808v0.028 C64.772 12.6 63.3 13.6 61.3 13.6"/><polygon fill="#020000" points="70,6 70,13.5 68,13.5 68,6 65.1,6 65.1,4.1 72.9,4.1 72.9,6"/><path fill="#020000" d="M79.378 10.593h-5.023c0.199 0.9 0.8 1.4 1.8 1.404c0.687 0 1.187-0.213 1.752-0.735l1.172 1 c-0.673 0.828-1.643 1.338-2.951 1.338c-2.17 0-3.77-1.513-3.77-3.706V9.897c0-2.046 1.468-3.729 3.568-3.729 c2.411 0 3.5 1.9 3.5 3.891v0.026C79.405 10.3 79.4 10.4 79.4 10.6 M75.89 7.799c-0.849 0-1.402 0.602-1.562 1.5 h3.084C77.29 8.4 76.8 7.8 75.9 7.8"/><path fill-rule="evenodd" clip-rule="evenodd" fill="#8CC63D" d="M35.704 17.15c-0.136 0.084-0.247 0.191-0.336 0.3 c-0.324-0.207-0.65-0.413-1.005-0.593c-2.906-0.609-3.216 3.552-0.838 3.835c0.777 0.1 1.272-0.258 1.899-0.649 c0.093 0.1 0.1 0.3 0.3 0.271c-0.415 0.441-0.763 0.773-1.341 0.864c-3.965 0.637-4.159-5.439-0.056-4.861 C34.934 16.4 35.4 16.7 35.7 17.15z"/><path fill-rule="evenodd" clip-rule="evenodd" fill="#8CC63D" d="M95.141 17.097c-0.331 0.885-0.739-0.109-1.564-0.217 c-2.261-0.298-2.59 2.265-1.787 3.24c0.653 0.8 2.3 0.8 3.073-0.055c0.916 0.457-0.777 1.241-1.621 1.2 c-2.216 0-3.435-2.945-1.62-4.429C92.564 16.1 94.3 16.2 95.1 17.097z"/><path fill-rule="evenodd" clip-rule="evenodd" fill="#8CC63D" d="M62.336 16.393v0.485l-3.017 0.002v1.566l2.618 0.007l-0.008 0.6 l-2.61 0.006c0 0 0 1.6 0 1.566l3.017-0.004c0 0 0 0.5 0 0.545H58.76c0-1.584 0-3.169 0-4.754 C59.953 16.4 61.1 16.4 62.3 16.393z"/><path fill-rule="evenodd" clip-rule="evenodd" fill="#8CC63D" d="M40.361 16.393v0.485l-3.017 0.002v1.566l2.617 0.007l-0.009 0.6 l-2.608 0.006c0 0 0 1.6 0 1.566l3.017-0.004c0 0 0 0.5 0 0.545h-3.575c0-1.584 0-3.169 0-4.754 C37.978 16.4 39.2 16.4 40.4 16.393z"/><path fill-rule="evenodd" clip-rule="evenodd" fill="#8CC63D" d="M43.972 19.202c0.438 0.7 1 1.3 1.5 1.9 c-0.132 0.126-0.501 0.022-0.727 0.056c-0.438-0.64-0.928-1.227-1.396-1.837c-0.446 0-0.894 0-1.34 0 c-0.009 0.7 0 1.559-0.057 1.837c-0.167 0-0.335 0-0.502 0c0.005-1.559-0.008-3.372 0-4.754 c1.176 0 2.74-0.173 3.4 0.38C45.617 17.4 45.4 19.1 44 19.202z M44.643 18.176c0.373-1.369-1.277-1.306-2.682-1.242 l0.021 1.863C43.144 18.8 44.4 19 44.6 18.176z"/><path fill-rule="evenodd" clip-rule="evenodd" fill="#8CC63D" d="M57.268 16.393c0 1.6 0 3.2 0 4.754c-0.185 0-0.374 0-0.56 0 c0-1.584 0-3.169 0-4.754C56.894 16.4 57.1 16.4 57.3 16.393z"/><path fill-rule="evenodd" clip-rule="evenodd" fill="#8CC63D" d="M80.617 16.393c0 1.6 0 3.2 0 4.754c-0.186 0-0.373 0-0.559 0 c0-1.584 0-3.169 0-4.754C80.244 16.4 80.4 16.4 80.6 16.393z"/><path fill-rule="evenodd" clip-rule="evenodd" fill="#8CC63D" d="M50.917 16.393c0 1.6 0 3.2 0 4.754c-0.186 0-0.372 0-0.558 0 c0-1.584 0-3.169 0-4.754C50.545 16.4 50.7 16.4 50.9 16.393z"/><path fill-rule="evenodd" clip-rule="evenodd" fill="#8CC63D" d="M63.411 16.393c2.167-0.165 3.9 0.2 4.2 1.8 c0.451 2.118-1.483 3.423-4.301 2.971C63.392 19.6 63.3 17.9 63.4 16.393z M66.931 19.634c0.8-1.645-0.726-3.111-2.905-2.7 c-0.129 1.134-0.019 2.503-0.056 3.727C65.463 20.7 66.5 20.5 66.9 19.634z"/><path fill-rule="evenodd" clip-rule="evenodd" fill="#8CC63D" d="M71.121 19.526l0.004 1.674h-0.562v-4.754 c1.269 0 2.683-0.148 3.3 0.434c0.638 0.6 0.5 1.789-0.112 2.267C73.116 19.6 72.2 19.5 71.1 19.526z M73.69 18.014c0.051-1.167-1.348-1.065-2.514-1.026c-0.13 0.559-0.02 1.351-0.056 1.999C72.517 19.2 73.7 18.9 73.7 18.014z "/><path fill-rule="evenodd" clip-rule="evenodd" fill="#8CC63D" d="M74.919 16.446c0.961 0.1 2.906-0.229 3.6 0.4 c0.708 0.7 0.3 2.265-0.894 2.376c0.335 0.6 0.9 1.3 1.5 1.891c-0.112 0.123-0.463 0.019-0.668 0.1 c-0.574-0.544-0.951-1.28-1.51-1.836c-0.445 0-0.894 0-1.34 0c0 0.6 0 1.2 0 1.836c-0.205 0-0.41 0-0.615 0 C74.915 19.6 74.9 17.8 74.9 16.446z M78.104 17.312c-0.421-0.535-1.578-0.248-2.569-0.324c0 0.6 0 1.2 0 1.8 C76.99 19.2 79 18.5 78.1 17.312z"/><path fill-rule="evenodd" clip-rule="evenodd" fill="#8CC63D" d="M49.558 16.393h-1.606c-0.187 0-0.372 0-0.559 0h-1.578v0.541 h1.578c0 1.4 0 2.8 0 4.213c0.187 0 0.4 0 0.6 0c0-1.405 0-2.809 0-4.213h1.606V16.393z"/><path fill-rule="evenodd" clip-rule="evenodd" fill="#8CC63D" d="M55.925 16.934v-0.541H52.91c-0.186 0-0.373 0-0.559 0 c0 0.2 0 0.4 0 0.541c0 1.4 0 2.8 0 4.213c0.186 0 0.4 0 0.6 0c0-0.672 0-1.344 0-2.018h2.681V18.54H52.91 c0-0.535 0-1.071 0-1.606H55.925z"/><polygon fill-rule="evenodd" clip-rule="evenodd" fill="#8CC63D" points="81.3,16.4 82,16.4 83.7,20.4 85.4,16.4 86,16.4 84,21.2 83.4,21.2"/><path fill-rule="evenodd" clip-rule="evenodd" fill="#8CC63D" d="M89.805 21.2h0.722l-2.176-4.754h-0.649L85.478 21.2h0.661 l0.621-1.333h2.444L89.805 21.2z M86.989 19.374l1.012-2.17l0.98 2.17H86.989z"/><polygon fill-rule="evenodd" clip-rule="evenodd" fill="#8CC63D" points="95.4,16.4 96.1,16.4 97.7,18.7 99.3,16.4 100,16.4 97.9,19.4 97.9,21.2 97.4,21.2 97.4,19.4"/></svg>