<?xml version="1.0" encoding="utf-8"?>
<!-- Generator: Adobe Illustrator 16.0.0, SVG Export Plug-In . SVG Version: 6.00 Build 0)  -->
<!DOCTYPE svg PUBLIC "-//W3C//DTD SVG 1.1//EN" "http://www.w3.org/Graphics/SVG/1.1/DTD/svg11.dtd">
<svg version="1.1" id="Layer_1" xmlns="http://www.w3.org/2000/svg" xmlns:xlink="http://www.w3.org/1999/xlink" x="0px" y="0px"
	 width="443.816px" height="175.787px" viewBox="0 0 443.816 175.787" enable-background="new 0 0 443.816 175.787"
	 xml:space="preserve">
<g>
	<path fill="#52B2AF" d="M408.936,66.685c-6.509,0-11.788,11.754-11.788,26.253c0,14.499,5.278,26.252,11.788,26.252
		c6.511,0,11.789-11.753,11.789-26.252C420.725,78.438,415.447,66.685,408.936,66.685z M409.057,116.729
		c0,0-4.52,1.283-7.909-12.024c0,0,7.624,9.78,9.996-3.046l4.405,6.968C415.549,108.627,413.257,116.902,409.057,116.729z
		 M407.86,92.938c0-2.975,1.138-5.385,2.541-5.385c1.403,0,2.54,2.411,2.54,5.385c0,2.974-1.137,5.385-2.54,5.385
		C408.998,98.322,407.86,95.911,407.86,92.938z M406.468,82.897l-4.638-6.284c0,0,2.413-7.462,6.835-7.307
		c0,0,4.759-1.157,8.327,10.844C416.992,80.149,408.965,71.33,406.468,82.897z"/>
	<path fill="#52B2AF" d="M396.376,79.692c-5.411-3.296-8.829-4.938-12.104-6.042c-11.893-4.013-3.32,5.032-7.195,5.081
		c-25.282,0.316-59.037,4.645-66.904,5.526c-7.056-9.261-21.425-24.133-35.045-24.133c-10.453,0,9.541,27.417,9.408,30.201
		c-0.127,2.788-15.826,15.942-6.391,16.998c17.062,1.909,17.922,3.126,26.671-3.846l25.883,5.594
		c16.022,3.243,42.301,6.175,66.313-0.675c-1.396-4.385-2.204-9.688-2.204-15.457C394.807,88.107,395.373,83.604,396.376,79.692z"/>
</g>
<path fill="#52B2AF" d="M333.25,99.417c-5.5,11.241-32.425,22.102-18.33,23.878c32.446,4.089,54.596-11.419,55.411-23.834
	c0.042-0.644-0.027-1.352-0.186-2.108L333.25,99.417z"/>
<path fill="#52B2AF" d="M277.736,87.162c-0.413-1.458-1.37-2.668-2.693-3.408l-17.327-9.673l-1.225-3.911
	c-48.501,15.191-74.95,10.482-105.574,5.03c-31.673-5.639-67.573-12.03-126.251,6.349l19.292,16.85L37.7,123.162
	c48.501-15.191,74.95-10.483,105.574-5.031c31.674,5.639,67.573,12.03,126.252-6.349l-1.305-4.167l9.009-16.14
	C277.97,90.153,278.15,88.621,277.736,87.162z M274.993,90.226l-7.827,14.022l-8.334-26.609l14.962,8.354
	c0.726,0.405,1.25,1.069,1.477,1.869C275.497,88.66,275.398,89.5,274.993,90.226z"/>
<g>
	<g>
		<path fill="#FFFFFF" d="M86.094,106.949c-7.783,0.494-12.875-4.461-12.875-11.429c0-7.04,0-10.667,0-17.362
			c2.582-0.72,3.873-1,6.455-1.436c-0.005,6.846-0.008,10.538-0.014,17.714c-0.003,4.428,2.698,6.713,6.44,6.463
			c3.741-0.25,6.416-2.932,6.42-7.383c0.008-7.215,0.012-10.917,0.021-17.831c2.582-0.012,3.873,0.028,6.455,0.158
			c-0.007,6.874-0.011,10.543-0.018,17.703C98.972,100.633,93.876,106.455,86.094,106.949z"/>
		<path fill="#FFFFFF" d="M119.649,97.158c-3.444-0.31-5.168-0.462-8.614-0.713c-0.001,4.083-0.001,6.12-0.003,10.072
			c-2.586-0.148-3.879-0.208-6.465-0.291c0.007-10.39,0.011-16.159,0.019-26.688c0.001-1.826,1.466-3.194,3.23-3.024
			c4.733,0.455,7.101,0.751,11.834,1.241c5.724,0.591,9.724,5.305,9.724,10.591S125.375,97.673,119.649,97.158z M118.617,82.918
			c-3.03-0.308-4.546-0.471-7.576-0.763c-0.001,3.5-0.001,5.284-0.003,8.838c3.032,0.249,4.547,0.391,7.578,0.675
			c2.238,0.21,4.131-1.575,4.131-4.058S120.855,83.145,118.617,82.918z"/>
		<path fill="#FFFFFF" d="M137.074,109.396c-1.764-0.315-3.185-2.008-3.185-3.802c0-10.341,0-16.012,0-26.161
			c2.564,0.387,3.846,0.6,6.41,1.039c0,9.226,0,14.366,0,23.877c5.954,1.113,8.933,1.766,14.887,2.898
			c0,2.307-0.001,3.449-0.001,5.681C147.941,111.532,144.319,110.689,137.074,109.396z"/>
		<path fill="#FFFFFF" d="M160.132,113.846c0-9.966,0.002-19.932,0-29.898c2.581,0.416,3.871,0.613,6.452,0.96
			c0.001,9.995,0,19.989,0.001,29.983C164.003,114.519,162.713,114.303,160.132,113.846z"/>
		<path fill="#FFFFFF" d="M179.276,91.952c0,2.388,0,3.605,0,6.047c4.372,0.448,6.559,0.695,10.931,1.057
			c1.549,0.128,2.796,1.546,2.796,3.204c0,1.657-1.247,2.859-2.795,2.731c-4.372-0.362-6.559-0.607-10.931-1.055
			c0,5.058,0,7.601,0,12.355c-2.582-0.264-3.875-0.382-6.456-0.637c0-10.219,0-16.289,0-26.743c0-1.813,1.465-3.139,3.229-2.965
			c7.453,0.737,11.179,1.253,18.632,1.706c0,2.22,0,3.363,0,5.68C188.52,92.958,185.439,92.583,179.276,91.952z"/>
		<path fill="#FFFFFF" d="M214.174,92.99c0,9.611,0.002,15,0.002,24.25c-2.582,0.338-3.875,0.446-6.457,0.576
			c0-9.249,0-14.637,0-24.249c-3.752,0.188-5.629,0.172-9.381,0.035c0-2.354,0-3.515,0-5.77c10.104,0.37,15.157,0.306,25.262-2.513
			c0,2.254,0,3.416,0,5.77C219.83,92.141,217.944,92.497,214.174,92.99z"/>
	</g>
</g>
<path fill="#52B2AF" d="M351.206,80.956c0,0,2.779-11.651-3.109-7.822c0,0-7.233,5.545-13.541,8.466
	C334.556,81.599,339.011,85.135,351.206,80.956z"/>
<path fill="#FFFFFF" d="M366.5,102.4c0.016-0.018,0.069-0.153,0.102-0.249c0.036-0.107,0.07-0.22,0.098-0.333
	c0.058-0.228,0.095-0.461,0.114-0.69c0.037-0.459-0.008-0.898-0.134-1.303c-0.244-0.805-0.862-1.525-1.811-2.104
	c-0.943-0.576-2.142-0.987-3.403-1.269c-1.265-0.283-2.605-0.443-3.963-0.533c-2.723-0.171-5.519-0.062-8.307,0.175
	c-2.792,0.24-5.588,0.616-8.373,1.068c-0.491,0.081-0.958-0.23-1.042-0.695c-0.081-0.442,0.218-0.865,0.671-0.973
	c2.78-0.652,5.587-1.23,8.436-1.676c2.851-0.44,5.742-0.761,8.708-0.781c1.483-0.004,2.986,0.065,4.513,0.295
	c1.522,0.235,3.087,0.614,4.61,1.389c0.757,0.391,1.502,0.889,2.155,1.534c0.653,0.641,1.203,1.432,1.554,2.295
	c0.355,0.863,0.518,1.777,0.521,2.663c0.002,0.444-0.032,0.881-0.103,1.315c-0.034,0.217-0.078,0.433-0.132,0.651
	c-0.06,0.228-0.108,0.417-0.221,0.712l-0.202,0.526c-0.415,1.083-1.679,1.644-2.824,1.251s-1.737-1.589-1.322-2.672
	C366.229,102.779,366.354,102.573,366.5,102.4z"/>
<path fill="#52B2AF" d="M374.664,82.568c-0.527-0.925-1.19-1.855-1.936-2.179c-0.748-0.302-3.267-0.642-5.395-0.876
	c2.054-1.364,3.407-3.631,3.407-6.186c0-4.16-3.562-7.534-7.959-7.534c-4.396,0-7.962,3.374-7.962,7.534
	c0,2.554,1.352,4.822,3.418,6.186c-2.145,0.234-4.661,0.575-5.403,0.876c-1.145,0.494-2.081,2.398-2.636,3.54l-0.028,0.052
	C358.345,83.322,366.803,82.789,374.664,82.568z"/>
</svg>
